<svg xmlns="http://www.w3.org/2000/svg" viewBox="-4.0 -24.0 16328.0 538.0" font-family="Segoe UI, system-ui, sans-serif">
<path d="M 480.0 350.0 L 160.0 420.0" fill="none" stroke="#1e1e1e" stroke-width="1.4"/>
<polygon points="160.0,420.0 167.2,414.7 168.8,421.8" fill="#1e1e1e"/>
<path d="M 480.0 350.0 L 480.0 420.0" fill="none" stroke="#1e1e1e" stroke-width="1.4"/>
<polygon points="480.0,420.0 476.3,411.8 483.7,411.8" fill="#1e1e1e"/>
<path d="M 480.0 350.0 L 800.0 420.0" fill="none" stroke="#1e1e1e" stroke-width="1.4"/>
<polygon points="800.0,420.0 791.2,421.8 792.8,414.7" fill="#1e1e1e"/>
<path d="M 1440.0 350.0 L 1120.0 420.0" fill="none" stroke="#1e1e1e" stroke-width="1.4"/>
<polygon points="1120.0,420.0 1127.2,414.7 1128.8,421.8" fill="#1e1e1e"/>
<path d="M 1440.0 350.0 L 1440.0 420.0" fill="none" stroke="#1e1e1e" stroke-width="1.4"/>
<polygon points="1440.0,420.0 1436.3,411.8 1443.7,411.8" fill="#1e1e1e"/>
<path d="M 1440.0 350.0 L 1760.0 420.0" fill="none" stroke="#1e1e1e" stroke-width="1.4"/>
<polygon points="1760.0,420.0 1751.2,421.8 1752.8,414.7" fill="#1e1e1e"/>
<path d="M 2880.0 350.0 L 2080.0 420.0" fill="none" stroke="#1e1e1e" stroke-width="1.4"/>
<polygon points="2080.0,420.0 2087.9,415.6 2088.5,422.9" fill="#1e1e1e"/>
<path d="M 2880.0 350.0 L 2400.0 420.0" fill="none" stroke="#1e1e1e" stroke-width="1.4"/>
<polygon points="2400.0,420.0 2407.6,415.2 2408.7,422.4" fill="#1e1e1e"/>
<path d="M 2880.0 350.0 L 2720.0 420.0" fill="none" stroke="#1e1e1e" stroke-width="1.4"/>
<polygon points="2720.0,420.0 2726.1,413.3 2729.0,420.1" fill="#1e1e1e"/>
<path d="M 2880.0 350.0 L 3040.0 420.0" fill="none" stroke="#1e1e1e" stroke-width="1.4"/>
<polygon points="3040.0,420.0 3031.0,420.1 3033.9,413.3" fill="#1e1e1e"/>
<path d="M 2880.0 350.0 L 3360.0 420.0" fill="none" stroke="#1e1e1e" stroke-width="1.4"/>
<polygon points="3360.0,420.0 3351.3,422.4 3352.4,415.2" fill="#1e1e1e"/>
<path d="M 2880.0 350.0 L 3680.0 420.0" fill="none" stroke="#1e1e1e" stroke-width="1.4"/>
<polygon points="3680.0,420.0 3671.5,422.9 3672.1,415.6" fill="#1e1e1e"/>
<path d="M 1600.0 210.0 L 480.0 280.0" fill="none" stroke="#1e1e1e" stroke-width="1.4"/>
<polygon points="480.0,280.0 488.0,275.8 488.4,283.2" fill="#1e1e1e"/>
<path d="M 1600.0 210.0 L 1440.0 280.0" fill="none" stroke="#1e1e1e" stroke-width="1.4"/>
<polygon points="1440.0,280.0 1446.1,273.3 1449.0,280.1" fill="#1e1e1e"/>
<path d="M 1600.0 210.0 L 2880.0 280.0" fill="none" stroke="#1e1e1e" stroke-width="1.4"/>
<polygon points="2880.0,280.0 2871.6,283.2 2872.0,275.9" fill="#1e1e1e"/>
<path d="M 4960.0 350.0 L 4000.0 420.0" fill="none" stroke="#1e1e1e" stroke-width="1.4"/>
<polygon points="4000.0,420.0 4007.9,415.7 4008.5,423.1" fill="#1e1e1e"/>
<path d="M 4960.0 350.0 L 4320.0 420.0" fill="none" stroke="#1e1e1e" stroke-width="1.4"/>
<polygon points="4320.0,420.0 4327.8,415.5 4328.6,422.8" fill="#1e1e1e"/>
<path d="M 4960.0 350.0 L 4640.0 420.0" fill="none" stroke="#1e1e1e" stroke-width="1.4"/>
<polygon points="4640.0,420.0 4647.2,414.7 4648.8,421.8" fill="#1e1e1e"/>
<path d="M 4960.0 350.0 L 4960.0 420.0" fill="none" stroke="#1e1e1e" stroke-width="1.4"/>
<polygon points="4960.0,420.0 4956.3,411.8 4963.7,411.8" fill="#1e1e1e"/>
<path d="M 4960.0 350.0 L 5280.0 420.0" fill="none" stroke="#1e1e1e" stroke-width="1.4"/>
<polygon points="5280.0,420.0 5271.2,421.8 5272.8,414.7" fill="#1e1e1e"/>
<path d="M 4960.0 350.0 L 5600.0 420.0" fill="none" stroke="#1e1e1e" stroke-width="1.4"/>
<polygon points="5600.0,420.0 5591.4,422.8 5592.2,415.5" fill="#1e1e1e"/>
<path d="M 4960.0 350.0 L 5920.0 420.0" fill="none" stroke="#1e1e1e" stroke-width="1.4"/>
<polygon points="5920.0,420.0 5911.5,423.1 5912.1,415.7" fill="#1e1e1e"/>
<path d="M 7040.0 350.0 L 6240.0 420.0" fill="none" stroke="#1e1e1e" stroke-width="1.4"/>
<polygon points="6240.0,420.0 6247.9,415.6 6248.5,422.9" fill="#1e1e1e"/>
<path d="M 7040.0 350.0 L 6560.0 420.0" fill="none" stroke="#1e1e1e" stroke-width="1.4"/>
<polygon points="6560.0,420.0 6567.6,415.2 6568.7,422.4" fill="#1e1e1e"/>
<path d="M 7040.0 350.0 L 6880.0 420.0" fill="none" stroke="#1e1e1e" stroke-width="1.4"/>
<polygon points="6880.0,420.0 6886.1,413.3 6889.0,420.1" fill="#1e1e1e"/>
<path d="M 7040.0 350.0 L 7200.0 420.0" fill="none" stroke="#1e1e1e" stroke-width="1.4"/>
<polygon points="7200.0,420.0 7191.0,420.1 7193.9,413.3" fill="#1e1e1e"/>
<path d="M 7040.0 350.0 L 7520.0 420.0" fill="none" stroke="#1e1e1e" stroke-width="1.4"/>
<polygon points="7520.0,420.0 7511.3,422.4 7512.4,415.2" fill="#1e1e1e"/>
<path d="M 7040.0 350.0 L 7840.0 420.0" fill="none" stroke="#1e1e1e" stroke-width="1.4"/>
<polygon points="7840.0,420.0 7831.5,422.9 7832.1,415.6" fill="#1e1e1e"/>
<path d="M 8960.0 350.0 L 8160.0 420.0" fill="none" stroke="#1e1e1e" stroke-width="1.4"/>
<polygon points="8160.0,420.0 8167.9,415.6 8168.5,422.9" fill="#1e1e1e"/>
<path d="M 8960.0 350.0 L 8480.0 420.0" fill="none" stroke="#1e1e1e" stroke-width="1.4"/>
<polygon points="8480.0,420.0 8487.6,415.2 8488.7,422.4" fill="#1e1e1e"/>
<path d="M 8960.0 350.0 L 8800.0 420.0" fill="none" stroke="#1e1e1e" stroke-width="1.4"/>
<polygon points="8800.0,420.0 8806.1,413.3 8809.0,420.1" fill="#1e1e1e"/>
<path d="M 8960.0 350.0 L 9120.0 420.0" fill="none" stroke="#1e1e1e" stroke-width="1.4"/>
<polygon points="9120.0,420.0 9111.0,420.1 9113.9,413.3" fill="#1e1e1e"/>
<path d="M 8960.0 350.0 L 9440.0 420.0" fill="none" stroke="#1e1e1e" stroke-width="1.4"/>
<polygon points="9440.0,420.0 9431.3,422.4 9432.4,415.2" fill="#1e1e1e"/>
<path d="M 8960.0 350.0 L 9760.0 420.0" fill="none" stroke="#1e1e1e" stroke-width="1.4"/>
<polygon points="9760.0,420.0 9751.5,422.9 9752.1,415.6" fill="#1e1e1e"/>
<path d="M 6986.0 210.0 L 4960.0 280.0" fill="none" stroke="#1e1e1e" stroke-width="1.4"/>
<polygon points="4960.0,280.0 4968.1,276.0 4968.3,283.4" fill="#1e1e1e"/>
<path d="M 6986.0 210.0 L 7040.0 280.0" fill="none" stroke="#1e1e1e" stroke-width="1.4"/>
<polygon points="7040.0,280.0 7032.1,275.7 7037.9,271.3" fill="#1e1e1e"/>
<path d="M 6986.0 210.0 L 8960.0 280.0" fill="none" stroke="#1e1e1e" stroke-width="1.4"/>
<polygon points="8960.0,280.0 8951.7,283.4 8951.9,276.0" fill="#1e1e1e"/>
<path d="M 10560.0 350.0 L 10080.0 420.0" fill="none" stroke="#1e1e1e" stroke-width="1.4"/>
<polygon points="10080.0,420.0 10087.6,415.2 10088.7,422.4" fill="#1e1e1e"/>
<path d="M 10560.0 350.0 L 10400.0 420.0" fill="none" stroke="#1e1e1e" stroke-width="1.4"/>
<polygon points="10400.0,420.0 10406.1,413.3 10409.0,420.1" fill="#1e1e1e"/>
<path d="M 10560.0 350.0 L 10720.0 420.0" fill="none" stroke="#1e1e1e" stroke-width="1.4"/>
<polygon points="10720.0,420.0 10711.0,420.1 10713.9,413.3" fill="#1e1e1e"/>
<path d="M 10560.0 350.0 L 11040.0 420.0" fill="none" stroke="#1e1e1e" stroke-width="1.4"/>
<polygon points="11040.0,420.0 11031.3,422.4 11032.4,415.2" fill="#1e1e1e"/>
<path d="M 12000.0 350.0 L 11360.0 420.0" fill="none" stroke="#1e1e1e" stroke-width="1.4"/>
<polygon points="11360.0,420.0 11367.8,415.5 11368.6,422.8" fill="#1e1e1e"/>
<path d="M 12000.0 350.0 L 11680.0 420.0" fill="none" stroke="#1e1e1e" stroke-width="1.4"/>
<polygon points="11680.0,420.0 11687.2,414.7 11688.8,421.8" fill="#1e1e1e"/>
<path d="M 12000.0 350.0 L 12000.0 420.0" fill="none" stroke="#1e1e1e" stroke-width="1.4"/>
<polygon points="12000.0,420.0 11996.3,411.8 12003.7,411.8" fill="#1e1e1e"/>
<path d="M 12000.0 350.0 L 12320.0 420.0" fill="none" stroke="#1e1e1e" stroke-width="1.4"/>
<polygon points="12320.0,420.0 12311.2,421.8 12312.8,414.7" fill="#1e1e1e"/>
<path d="M 12000.0 350.0 L 12640.0 420.0" fill="none" stroke="#1e1e1e" stroke-width="1.4"/>
<polygon points="12640.0,420.0 12631.4,422.8 12632.2,415.5" fill="#1e1e1e"/>
<path d="M 13600.0 350.0 L 12960.0 420.0" fill="none" stroke="#1e1e1e" stroke-width="1.4"/>
<polygon points="12960.0,420.0 12967.8,415.5 12968.6,422.8" fill="#1e1e1e"/>
<path d="M 13600.0 350.0 L 13280.0 420.0" fill="none" stroke="#1e1e1e" stroke-width="1.4"/>
<polygon points="13280.0,420.0 13287.2,414.7 13288.8,421.8" fill="#1e1e1e"/>
<path d="M 13600.0 350.0 L 13600.0 420.0" fill="none" stroke="#1e1e1e" stroke-width="1.4"/>
<polygon points="13600.0,420.0 13596.3,411.8 13603.7,411.8" fill="#1e1e1e"/>
<path d="M 13600.0 350.0 L 13920.0 420.0" fill="none" stroke="#1e1e1e" stroke-width="1.4"/>
<polygon points="13920.0,420.0 13911.2,421.8 13912.8,414.7" fill="#1e1e1e"/>
<path d="M 13600.0 350.0 L 14240.0 420.0" fill="none" stroke="#1e1e1e" stroke-width="1.4"/>
<polygon points="14240.0,420.0 14231.4,422.8 14232.2,415.5" fill="#1e1e1e"/>
<path d="M 12053.0 210.0 L 10560.0 280.0" fill="none" stroke="#1e1e1e" stroke-width="1.4"/>
<polygon points="10560.0,280.0 10568.0,275.9 10568.4,283.3" fill="#1e1e1e"/>
<path d="M 12053.0 210.0 L 12000.0 280.0" fill="none" stroke="#1e1e1e" stroke-width="1.4"/>
<polygon points="12000.0,280.0 12002.0,271.2 12007.9,275.7" fill="#1e1e1e"/>
<path d="M 12053.0 210.0 L 13600.0 280.0" fill="none" stroke="#1e1e1e" stroke-width="1.4"/>
<polygon points="13600.0,280.0 13591.6,283.3 13592.0,276.0" fill="#1e1e1e"/>
<path d="M 14880.0 350.0 L 14560.0 420.0" fill="none" stroke="#1e1e1e" stroke-width="1.4"/>
<polygon points="14560.0,420.0 14567.2,414.7 14568.8,421.8" fill="#1e1e1e"/>
<path d="M 14880.0 350.0 L 14880.0 420.0" fill="none" stroke="#1e1e1e" stroke-width="1.4"/>
<polygon points="14880.0,420.0 14876.3,411.8 14883.7,411.8" fill="#1e1e1e"/>
<path d="M 14880.0 350.0 L 15200.0 420.0" fill="none" stroke="#1e1e1e" stroke-width="1.4"/>
<polygon points="15200.0,420.0 15191.2,421.8 15192.8,414.7" fill="#1e1e1e"/>
<path d="M 15840.0 350.0 L 15520.0 420.0" fill="none" stroke="#1e1e1e" stroke-width="1.4"/>
<polygon points="15520.0,420.0 15527.2,414.7 15528.8,421.8" fill="#1e1e1e"/>
<path d="M 15840.0 350.0 L 15840.0 420.0" fill="none" stroke="#1e1e1e" stroke-width="1.4"/>
<polygon points="15840.0,420.0 15836.3,411.8 15843.7,411.8" fill="#1e1e1e"/>
<path d="M 15840.0 350.0 L 16160.0 420.0" fill="none" stroke="#1e1e1e" stroke-width="1.4"/>
<polygon points="16160.0,420.0 16151.2,421.8 16152.8,414.7" fill="#1e1e1e"/>
<path d="M 15360.0 210.0 L 14880.0 280.0" fill="none" stroke="#1e1e1e" stroke-width="1.4"/>
<polygon points="14880.0,280.0 14887.6,275.2 14888.7,282.4" fill="#1e1e1e"/>
<path d="M 15360.0 210.0 L 15840.0 280.0" fill="none" stroke="#1e1e1e" stroke-width="1.4"/>
<polygon points="15840.0,280.0 15831.3,282.4 15832.4,275.2" fill="#1e1e1e"/>
<path d="M 9000.0 70.0 L 1600.0 140.0" fill="none" stroke="#1e1e1e" stroke-width="1.4"/>
<polygon points="1600.0,140.0 1608.2,136.3 1608.3,143.6" fill="#1e1e1e"/>
<path d="M 9000.0 70.0 L 6986.0 140.0" fill="none" stroke="#1e1e1e" stroke-width="1.4"/>
<polygon points="6986.0,140.0 6994.1,136.0 6994.3,143.4" fill="#1e1e1e"/>
<path d="M 9000.0 70.0 L 12053.0 140.0" fill="none" stroke="#1e1e1e" stroke-width="1.4"/>
<polygon points="12053.0,140.0 12044.7,143.5 12044.9,136.1" fill="#1e1e1e"/>
<path d="M 9000.0 70.0 L 15360.0 140.0" fill="none" stroke="#1e1e1e" stroke-width="1.4"/>
<polygon points="15360.0,140.0 15351.7,143.6 15351.8,136.2" fill="#1e1e1e"/>
<rect x="20.0" y="420.0" width="280.0" height="70.0" rx="8" fill="#a5d8ff" stroke="#1e1e1e" stroke-width="1.2"/>
<rect x="340.0" y="420.0" width="280.0" height="70.0" rx="8" fill="#a5d8ff" stroke="#1e1e1e" stroke-width="1.2"/>
<rect x="660.0" y="420.0" width="280.0" height="70.0" rx="8" fill="#a5d8ff" stroke="#1e1e1e" stroke-width="1.2"/>
<rect x="340.0" y="280.0" width="280.0" height="70.0" rx="8" fill="#b2f2bb" stroke="#1e1e1e" stroke-width="1.2"/>
<rect x="980.0" y="420.0" width="280.0" height="70.0" rx="8" fill="#a5d8ff" stroke="#1e1e1e" stroke-width="1.2"/>
<rect x="1300.0" y="420.0" width="280.0" height="70.0" rx="8" fill="#a5d8ff" stroke="#1e1e1e" stroke-width="1.2"/>
<rect x="1620.0" y="420.0" width="280.0" height="70.0" rx="8" fill="#a5d8ff" stroke="#1e1e1e" stroke-width="1.2"/>
<rect x="1300.0" y="280.0" width="280.0" height="70.0" rx="8" fill="#b2f2bb" stroke="#1e1e1e" stroke-width="1.2"/>
<rect x="1940.0" y="420.0" width="280.0" height="70.0" rx="8" fill="#a5d8ff" stroke="#1e1e1e" stroke-width="1.2"/>
<rect x="2260.0" y="420.0" width="280.0" height="70.0" rx="8" fill="#a5d8ff" stroke="#1e1e1e" stroke-width="1.2"/>
<rect x="2580.0" y="420.0" width="280.0" height="70.0" rx="8" fill="#a5d8ff" stroke="#1e1e1e" stroke-width="1.2"/>
<rect x="2900.0" y="420.0" width="280.0" height="70.0" rx="8" fill="#a5d8ff" stroke="#1e1e1e" stroke-width="1.2"/>
<rect x="3220.0" y="420.0" width="280.0" height="70.0" rx="8" fill="#a5d8ff" stroke="#1e1e1e" stroke-width="1.2"/>
<rect x="3540.0" y="420.0" width="280.0" height="70.0" rx="8" fill="#a5d8ff" stroke="#1e1e1e" stroke-width="1.2"/>
<rect x="2740.0" y="280.0" width="280.0" height="70.0" rx="8" fill="#b2f2bb" stroke="#1e1e1e" stroke-width="1.2"/>
<rect x="1460.0" y="140.0" width="280.0" height="70.0" rx="8" fill="#ffd8a8" stroke="#1e1e1e" stroke-width="1.2"/>
<rect x="3860.0" y="420.0" width="280.0" height="70.0" rx="8" fill="#a5d8ff" stroke="#1e1e1e" stroke-width="1.2"/>
<rect x="4180.0" y="420.0" width="280.0" height="70.0" rx="8" fill="#a5d8ff" stroke="#1e1e1e" stroke-width="1.2"/>
<rect x="4500.0" y="420.0" width="280.0" height="70.0" rx="8" fill="#a5d8ff" stroke="#1e1e1e" stroke-width="1.2"/>
<rect x="4820.0" y="420.0" width="280.0" height="70.0" rx="8" fill="#a5d8ff" stroke="#1e1e1e" stroke-width="1.2"/>
<rect x="5140.0" y="420.0" width="280.0" height="70.0" rx="8" fill="#a5d8ff" stroke="#1e1e1e" stroke-width="1.2"/>
<rect x="5460.0" y="420.0" width="280.0" height="70.0" rx="8" fill="#a5d8ff" stroke="#1e1e1e" stroke-width="1.2"/>
<rect x="5780.0" y="420.0" width="280.0" height="70.0" rx="8" fill="#a5d8ff" stroke="#1e1e1e" stroke-width="1.2"/>
<rect x="4820.0" y="280.0" width="280.0" height="70.0" rx="8" fill="#b2f2bb" stroke="#1e1e1e" stroke-width="1.2"/>
<rect x="6100.0" y="420.0" width="280.0" height="70.0" rx="8" fill="#a5d8ff" stroke="#1e1e1e" stroke-width="1.2"/>
<rect x="6420.0" y="420.0" width="280.0" height="70.0" rx="8" fill="#a5d8ff" stroke="#1e1e1e" stroke-width="1.2"/>
<rect x="6740.0" y="420.0" width="280.0" height="70.0" rx="8" fill="#a5d8ff" stroke="#1e1e1e" stroke-width="1.2"/>
<rect x="7060.0" y="420.0" width="280.0" height="70.0" rx="8" fill="#a5d8ff" stroke="#1e1e1e" stroke-width="1.2"/>
<rect x="7380.0" y="420.0" width="280.0" height="70.0" rx="8" fill="#a5d8ff" stroke="#1e1e1e" stroke-width="1.2"/>
<rect x="7700.0" y="420.0" width="280.0" height="70.0" rx="8" fill="#a5d8ff" stroke="#1e1e1e" stroke-width="1.2"/>
<rect x="6900.0" y="280.0" width="280.0" height="70.0" rx="8" fill="#b2f2bb" stroke="#1e1e1e" stroke-width="1.2"/>
<rect x="8020.0" y="420.0" width="280.0" height="70.0" rx="8" fill="#a5d8ff" stroke="#1e1e1e" stroke-width="1.2"/>
<rect x="8340.0" y="420.0" width="280.0" height="70.0" rx="8" fill="#a5d8ff" stroke="#1e1e1e" stroke-width="1.2"/>
<rect x="8660.0" y="420.0" width="280.0" height="70.0" rx="8" fill="#a5d8ff" stroke="#1e1e1e" stroke-width="1.2"/>
<rect x="8980.0" y="420.0" width="280.0" height="70.0" rx="8" fill="#a5d8ff" stroke="#1e1e1e" stroke-width="1.2"/>
<rect x="9300.0" y="420.0" width="280.0" height="70.0" rx="8" fill="#a5d8ff" stroke="#1e1e1e" stroke-width="1.2"/>
<rect x="9620.0" y="420.0" width="280.0" height="70.0" rx="8" fill="#a5d8ff" stroke="#1e1e1e" stroke-width="1.2"/>
<rect x="8820.0" y="280.0" width="280.0" height="70.0" rx="8" fill="#b2f2bb" stroke="#1e1e1e" stroke-width="1.2"/>
<rect x="6846.0" y="140.0" width="280.0" height="70.0" rx="8" fill="#ffd8a8" stroke="#1e1e1e" stroke-width="1.2"/>
<rect x="9940.0" y="420.0" width="280.0" height="70.0" rx="8" fill="#a5d8ff" stroke="#1e1e1e" stroke-width="1.2"/>
<rect x="10260.0" y="420.0" width="280.0" height="70.0" rx="8" fill="#a5d8ff" stroke="#1e1e1e" stroke-width="1.2"/>
<rect x="10580.0" y="420.0" width="280.0" height="70.0" rx="8" fill="#a5d8ff" stroke="#1e1e1e" stroke-width="1.2"/>
<rect x="10900.0" y="420.0" width="280.0" height="70.0" rx="8" fill="#a5d8ff" stroke="#1e1e1e" stroke-width="1.2"/>
<rect x="10420.0" y="280.0" width="280.0" height="70.0" rx="8" fill="#b2f2bb" stroke="#1e1e1e" stroke-width="1.2"/>
<rect x="11220.0" y="420.0" width="280.0" height="70.0" rx="8" fill="#a5d8ff" stroke="#1e1e1e" stroke-width="1.2"/>
<rect x="11540.0" y="420.0" width="280.0" height="70.0" rx="8" fill="#a5d8ff" stroke="#1e1e1e" stroke-width="1.2"/>
<rect x="11860.0" y="420.0" width="280.0" height="70.0" rx="8" fill="#a5d8ff" stroke="#1e1e1e" stroke-width="1.2"/>
<rect x="12180.0" y="420.0" width="280.0" height="70.0" rx="8" fill="#a5d8ff" stroke="#1e1e1e" stroke-width="1.2"/>
<rect x="12500.0" y="420.0" width="280.0" height="70.0" rx="8" fill="#a5d8ff" stroke="#1e1e1e" stroke-width="1.2"/>
<rect x="11860.0" y="280.0" width="280.0" height="70.0" rx="8" fill="#b2f2bb" stroke="#1e1e1e" stroke-width="1.2"/>
<rect x="12820.0" y="420.0" width="280.0" height="70.0" rx="8" fill="#a5d8ff" stroke="#1e1e1e" stroke-width="1.2"/>
<rect x="13140.0" y="420.0" width="280.0" height="70.0" rx="8" fill="#a5d8ff" stroke="#1e1e1e" stroke-width="1.2"/>
<rect x="13460.0" y="420.0" width="280.0" height="70.0" rx="8" fill="#a5d8ff" stroke="#1e1e1e" stroke-width="1.2"/>
<rect x="13780.0" y="420.0" width="280.0" height="70.0" rx="8" fill="#a5d8ff" stroke="#1e1e1e" stroke-width="1.2"/>
<rect x="14100.0" y="420.0" width="280.0" height="70.0" rx="8" fill="#a5d8ff" stroke="#1e1e1e" stroke-width="1.2"/>
<rect x="13460.0" y="280.0" width="280.0" height="70.0" rx="8" fill="#b2f2bb" stroke="#1e1e1e" stroke-width="1.2"/>
<rect x="11913.0" y="140.0" width="280.0" height="70.0" rx="8" fill="#ffd8a8" stroke="#1e1e1e" stroke-width="1.2"/>
<rect x="14420.0" y="420.0" width="280.0" height="70.0" rx="8" fill="#a5d8ff" stroke="#1e1e1e" stroke-width="1.2"/>
<rect x="14740.0" y="420.0" width="280.0" height="70.0" rx="8" fill="#a5d8ff" stroke="#1e1e1e" stroke-width="1.2"/>
<rect x="15060.0" y="420.0" width="280.0" height="70.0" rx="8" fill="#a5d8ff" stroke="#1e1e1e" stroke-width="1.2"/>
<rect x="14740.0" y="280.0" width="280.0" height="70.0" rx="8" fill="#b2f2bb" stroke="#1e1e1e" stroke-width="1.2"/>
<rect x="15380.0" y="420.0" width="280.0" height="70.0" rx="8" fill="#a5d8ff" stroke="#1e1e1e" stroke-width="1.2"/>
<rect x="15700.0" y="420.0" width="280.0" height="70.0" rx="8" fill="#a5d8ff" stroke="#1e1e1e" stroke-width="1.2"/>
<rect x="16020.0" y="420.0" width="280.0" height="70.0" rx="8" fill="#a5d8ff" stroke="#1e1e1e" stroke-width="1.2"/>
<rect x="15700.0" y="280.0" width="280.0" height="70.0" rx="8" fill="#b2f2bb" stroke="#1e1e1e" stroke-width="1.2"/>
<rect x="15220.0" y="140.0" width="280.0" height="70.0" rx="8" fill="#ffd8a8" stroke="#1e1e1e" stroke-width="1.2"/>
<rect x="8860.0" y="0.0" width="280.0" height="70.0" rx="8" fill="#d0bfff" stroke="#1e1e1e" stroke-width="1.2"/>
<text x="28.0" y="458.6" font-size="16" fill="#1e1e1e">Ausklinkungen (DIN 1052)</text>
<text x="348.0" y="448.6" font-size="16" fill="#1e1e1e">Verstärkung (Gewindestangen,</text>
<text x="348.0" y="468.6" font-size="16" fill="#1e1e1e">Bleche)</text>
<text x="668.0" y="458.6" font-size="16" fill="#1e1e1e">Durchbrüche (Bohrungen, Kanäle)</text>
<text x="348.0" y="318.6" font-size="16" fill="#1e1e1e">BSH-Träger</text>
<text x="988.0" y="458.6" font-size="16" fill="#1e1e1e">Exzentrische Anschlüsse</text>
<text x="1308.0" y="458.6" font-size="16" fill="#1e1e1e">Hallenstützen Fußpunkt</text>
<text x="1628.0" y="448.6" font-size="16" fill="#1e1e1e">Einspannung (Blech, HEA/HEB,</text>
<text x="1628.0" y="468.6" font-size="16" fill="#1e1e1e">C-Profil)</text>
<text x="1308.0" y="318.6" font-size="16" fill="#1e1e1e">Hallenbau</text>
<text x="1948.0" y="448.6" font-size="16" fill="#1e1e1e">Druckspannung (Steinfestigkeit,</text>
<text x="1948.0" y="468.6" font-size="16" fill="#1e1e1e">Mörtel)</text>
<text x="2268.0" y="448.6" font-size="16" fill="#1e1e1e">Auflagerpressung (Dämmstreifen,</text>
<text x="2268.0" y="468.6" font-size="16" fill="#1e1e1e">Zentrierleiste)</text>
<text x="2588.0" y="458.6" font-size="16" fill="#1e1e1e">Ringbalken zur Aussteifung</text>
<text x="2908.0" y="458.6" font-size="16" fill="#1e1e1e">Plattenbalken (Verbundwirkung)</text>
<text x="3228.0" y="448.6" font-size="16" fill="#1e1e1e">Bewehrung (Biegezug, Bügel,</text>
<text x="3228.0" y="468.6" font-size="16" fill="#1e1e1e">konstruktiv)</text>
<text x="3548.0" y="448.6" font-size="16" fill="#1e1e1e">Expositionsklassen &amp;</text>
<text x="3548.0" y="468.6" font-size="16" fill="#1e1e1e">Betonfestigkeit</text>
<text x="2748.0" y="318.6" font-size="16" fill="#1e1e1e">Mauerwerk &amp; Betonbau</text>
<text x="1468.0" y="178.6" font-size="16" fill="#1e1e1e">Statik (2.1)</text>
<text x="3868.0" y="448.6" font-size="16" fill="#1e1e1e">Wärmedämmung vs.</text>
<text x="3868.0" y="468.6" font-size="16" fill="#1e1e1e">Wärmespeicherung</text>
<text x="4188.0" y="448.6" font-size="16" fill="#1e1e1e">Wärmebrücken (Stoff, Geometrie,</text>
<text x="4188.0" y="468.6" font-size="16" fill="#1e1e1e">Konvektion)</text>
<text x="4508.0" y="448.6" font-size="16" fill="#1e1e1e">Übertragungsarten (Leitung,</text>
<text x="4508.0" y="468.6" font-size="16" fill="#1e1e1e">Strahlung, Konvektion)</text>
<text x="4828.0" y="458.6" font-size="16" fill="#1e1e1e">Kennwerte (λ, R-Wert, U-Wert)</text>
<text x="5148.0" y="448.6" font-size="16" fill="#1e1e1e">Luft- &amp; Winddichtigkeit (Fugen,</text>
<text x="5148.0" y="468.6" font-size="16" fill="#1e1e1e">Folien)</text>
<text x="5468.0" y="458.6" font-size="16" fill="#1e1e1e">Blower-Door &amp; Thermographie</text>
<text x="5788.0" y="448.6" font-size="16" fill="#1e1e1e">Sommerlicher Wärmeschutz (TAV,</text>
<text x="5788.0" y="468.6" font-size="16" fill="#1e1e1e">Verschattung)</text>
<text x="4828.0" y="318.6" font-size="16" fill="#1e1e1e">Wärmeschutz</text>
<text x="6108.0" y="458.6" font-size="16" fill="#1e1e1e">Klimabedingter Feuchteschutz</text>
<text x="6428.0" y="458.6" font-size="16" fill="#1e1e1e">Luftfeuchtigkeit (abs/rel)</text>
<text x="6748.0" y="458.6" font-size="16" fill="#1e1e1e">Taupunkt &amp; Kondensation</text>
<text x="7068.0" y="448.6" font-size="16" fill="#1e1e1e">Wasserdampfdiffusion (µ,</text>
<text x="7068.0" y="468.6" font-size="16" fill="#1e1e1e">sd-Wert)</text>
<text x="7388.0" y="448.6" font-size="16" fill="#1e1e1e">Belüftungsquerschnitte (Traufe,</text>
<text x="7388.0" y="468.6" font-size="16" fill="#1e1e1e">First)</text>
<text x="7708.0" y="458.6" font-size="16" fill="#1e1e1e">Glaser-Verfahren</text>
<text x="6908.0" y="318.6" font-size="16" fill="#1e1e1e">Feuchteschutz</text>
<text x="8028.0" y="448.6" font-size="16" fill="#1e1e1e">Energieeinsparpotential</text>
<text x="8028.0" y="468.6" font-size="16" fill="#1e1e1e">(CO2-Reduktion)</text>
<text x="8348.0" y="448.6" font-size="16" fill="#1e1e1e">Geltungsbereich (Neubau,</text>
<text x="8348.0" y="468.6" font-size="16" fill="#1e1e1e">Altbau)</text>
<text x="8668.0" y="448.6" font-size="16" fill="#1e1e1e">Nachweisverfahren</text>
<text x="8668.0" y="468.6" font-size="16" fill="#1e1e1e">(Heizperioden/Monatsbilanz)</text>
<text x="8988.0" y="458.6" font-size="16" fill="#1e1e1e">HT, Qs, Qi, Qh, QP</text>
<text x="9308.0" y="458.6" font-size="16" fill="#1e1e1e">Energiebedarfsausweis</text>
<text x="9628.0" y="448.6" font-size="16" fill="#1e1e1e">Nachrüstverpflichtung (Dämmung,</text>
<text x="9628.0" y="468.6" font-size="16" fill="#1e1e1e">Kessel)</text>
<text x="8828.0" y="318.6" font-size="16" fill="#1e1e1e">EnEV 2002</text>
<text x="6854.0" y="178.6" font-size="16" fill="#1e1e1e">Bauphysik (2.2)</text>
<text x="9948.0" y="448.6" font-size="16" fill="#1e1e1e">Dämmstoffarten (Faser, Schaum,</text>
<text x="9948.0" y="468.6" font-size="16" fill="#1e1e1e">Schüttung)</text>
<text x="10268.0" y="448.6" font-size="16" fill="#1e1e1e">Aufsparrendämmung</text>
<text x="10268.0" y="468.6" font-size="16" fill="#1e1e1e">(Wärmebrückenfrei)</text>
<text x="10588.0" y="458.6" font-size="16" fill="#1e1e1e">Zwischen- &amp; Untersparrendämmung</text>
<text x="10908.0" y="448.6" font-size="16" fill="#1e1e1e">Innendämmung (Fachwerk,</text>
<text x="10908.0" y="468.6" font-size="16" fill="#1e1e1e">Sanierung)</text>
<text x="10428.0" y="318.6" font-size="16" fill="#1e1e1e">Dämmsysteme</text>
<text x="11228.0" y="458.6" font-size="16" fill="#1e1e1e">Luft- &amp; Körperschall</text>
<text x="11548.0" y="458.6" font-size="16" fill="#1e1e1e">Kennwerte (RW, Ln,w)</text>
<text x="11868.0" y="448.6" font-size="16" fill="#1e1e1e">Übertragungswege (Flanken,</text>
<text x="11868.0" y="468.6" font-size="16" fill="#1e1e1e">Nebenwege)</text>
<text x="12188.0" y="448.6" font-size="16" fill="#1e1e1e">Biegeweiche vs. biegesteife</text>
<text x="12188.0" y="468.6" font-size="16" fill="#1e1e1e">Bauteile</text>
<text x="12508.0" y="448.6" font-size="16" fill="#1e1e1e">Maßnahmen Holzbalkendecke</text>
<text x="12508.0" y="468.6" font-size="16" fill="#1e1e1e">(Masse, Entkopplung)</text>
<text x="11868.0" y="318.6" font-size="16" fill="#1e1e1e">Schallschutz</text>
<text x="12828.0" y="448.6" font-size="16" fill="#1e1e1e">Brandentstehung (O2, Stoff,</text>
<text x="12828.0" y="468.6" font-size="16" fill="#1e1e1e">Hitze)</text>
<text x="13148.0" y="448.6" font-size="16" fill="#1e1e1e">Baustoffklassen (DIN 4102 / EN</text>
<text x="13148.0" y="468.6" font-size="16" fill="#1e1e1e">13501)</text>
<text x="13468.0" y="448.6" font-size="16" fill="#1e1e1e">Feuerwiderstandsklassen (F30 -</text>
<text x="13468.0" y="468.6" font-size="16" fill="#1e1e1e">F180)</text>
<text x="13788.0" y="448.6" font-size="16" fill="#1e1e1e">Brandwände (feuerbeständig,</text>
<text x="13788.0" y="468.6" font-size="16" fill="#1e1e1e">nicht brennbar)</text>
<text x="14108.0" y="448.6" font-size="16" fill="#1e1e1e">Gebäudetrennwand (F30-B /</text>
<text x="14108.0" y="468.6" font-size="16" fill="#1e1e1e">F90-B)</text>
<text x="13468.0" y="318.6" font-size="16" fill="#1e1e1e">Brandschutz</text>
<text x="11921.0" y="178.6" font-size="16" fill="#1e1e1e">Schutzfunktionen (2.3)</text>
<text x="14428.0" y="458.6" font-size="16" fill="#1e1e1e">Kehlbalkendach (Hahnenbalken)</text>
<text x="14748.0" y="448.6" font-size="16" fill="#1e1e1e">Pfettendach (stehend,</text>
<text x="14748.0" y="468.6" font-size="16" fill="#1e1e1e">abgestrebt)</text>
<text x="15068.0" y="458.6" font-size="16" fill="#1e1e1e">Mansardendach (Hängewerk)</text>
<text x="14748.0" y="318.6" font-size="16" fill="#1e1e1e">Dachkonstruktionen</text>
<text x="15388.0" y="448.6" font-size="16" fill="#1e1e1e">Horizontale Scheiben</text>
<text x="15388.0" y="468.6" font-size="16" fill="#1e1e1e">(Brettschalung, Platten)</text>
<text x="15708.0" y="458.6" font-size="16" fill="#1e1e1e">Queraussteifung (Windkräfte)</text>
<text x="16028.0" y="448.6" font-size="16" fill="#1e1e1e">Aufsparrendämmung (Knagge,</text>
<text x="16028.0" y="468.6" font-size="16" fill="#1e1e1e">Traufbohle)</text>
<text x="15708.0" y="318.6" font-size="16" fill="#1e1e1e">Aussteifung &amp; Lastabtragung</text>
<text x="15228.0" y="178.6" font-size="16" fill="#1e1e1e">Holzbaukonstruktionen (2.4)</text>
<text x="8868.0" y="28.6" font-size="16" fill="#1e1e1e">🧠 Fachtechnologie</text>
<text x="8868.0" y="48.6" font-size="16" fill="#1e1e1e">Zimmerhandwerk</text>
</svg>