<svg xmlns="http://www.w3.org/2000/svg" viewBox="-4.0 -24.0 23048.0 678.0" font-family="Segoe UI, system-ui, sans-serif">
<path d="M 800.0 210.0 L 160.0 280.0" fill="none" stroke="#1e1e1e" stroke-width="1.4"/>
<polygon points="160.0,280.0 167.8,275.5 168.6,282.8" fill="#1e1e1e"/>
<path d="M 800.0 210.0 L 480.0 280.0" fill="none" stroke="#1e1e1e" stroke-width="1.4"/>
<polygon points="480.0,280.0 487.2,274.7 488.8,281.8" fill="#1e1e1e"/>
<path d="M 800.0 210.0 L 800.0 280.0" fill="none" stroke="#1e1e1e" stroke-width="1.4"/>
<polygon points="800.0,280.0 796.3,271.8 803.7,271.8" fill="#1e1e1e"/>
<path d="M 800.0 210.0 L 1120.0 280.0" fill="none" stroke="#1e1e1e" stroke-width="1.4"/>
<polygon points="1120.0,280.0 1111.2,281.8 1112.8,274.7" fill="#1e1e1e"/>
<path d="M 800.0 210.0 L 1440.0 280.0" fill="none" stroke="#1e1e1e" stroke-width="1.4"/>
<polygon points="1440.0,280.0 1431.4,282.8 1432.2,275.5" fill="#1e1e1e"/>
<path d="M 1920.0 350.0 L 1760.0 420.0" fill="none" stroke="#1e1e1e" stroke-width="1.4"/>
<polygon points="1760.0,420.0 1766.1,413.3 1769.0,420.1" fill="#1e1e1e"/>
<path d="M 1920.0 350.0 L 2080.0 420.0" fill="none" stroke="#1e1e1e" stroke-width="1.4"/>
<polygon points="2080.0,420.0 2071.0,420.1 2073.9,413.3" fill="#1e1e1e"/>
<path d="M 2880.0 350.0 L 2400.0 420.0" fill="none" stroke="#1e1e1e" stroke-width="1.4"/>
<polygon points="2400.0,420.0 2407.6,415.2 2408.7,422.4" fill="#1e1e1e"/>
<path d="M 2880.0 350.0 L 2720.0 420.0" fill="none" stroke="#1e1e1e" stroke-width="1.4"/>
<polygon points="2720.0,420.0 2726.1,413.3 2729.0,420.1" fill="#1e1e1e"/>
<path d="M 2880.0 350.0 L 3040.0 420.0" fill="none" stroke="#1e1e1e" stroke-width="1.4"/>
<polygon points="3040.0,420.0 3031.0,420.1 3033.9,413.3" fill="#1e1e1e"/>
<path d="M 2880.0 350.0 L 3360.0 420.0" fill="none" stroke="#1e1e1e" stroke-width="1.4"/>
<polygon points="3360.0,420.0 3351.3,422.4 3352.4,415.2" fill="#1e1e1e"/>
<path d="M 2400.0 210.0 L 1920.0 280.0" fill="none" stroke="#1e1e1e" stroke-width="1.4"/>
<polygon points="1920.0,280.0 1927.6,275.2 1928.7,282.4" fill="#1e1e1e"/>
<path d="M 2400.0 210.0 L 2880.0 280.0" fill="none" stroke="#1e1e1e" stroke-width="1.4"/>
<polygon points="2880.0,280.0 2871.3,282.4 2872.4,275.2" fill="#1e1e1e"/>
<path d="M 4320.0 350.0 L 3680.0 420.0" fill="none" stroke="#1e1e1e" stroke-width="1.4"/>
<polygon points="3680.0,420.0 3687.8,415.5 3688.6,422.8" fill="#1e1e1e"/>
<path d="M 4320.0 350.0 L 4000.0 420.0" fill="none" stroke="#1e1e1e" stroke-width="1.4"/>
<polygon points="4000.0,420.0 4007.2,414.7 4008.8,421.8" fill="#1e1e1e"/>
<path d="M 4320.0 350.0 L 4320.0 420.0" fill="none" stroke="#1e1e1e" stroke-width="1.4"/>
<polygon points="4320.0,420.0 4316.3,411.8 4323.7,411.8" fill="#1e1e1e"/>
<path d="M 4320.0 350.0 L 4640.0 420.0" fill="none" stroke="#1e1e1e" stroke-width="1.4"/>
<polygon points="4640.0,420.0 4631.2,421.8 4632.8,414.7" fill="#1e1e1e"/>
<path d="M 4320.0 350.0 L 4960.0 420.0" fill="none" stroke="#1e1e1e" stroke-width="1.4"/>
<polygon points="4960.0,420.0 4951.4,422.8 4952.2,415.5" fill="#1e1e1e"/>
<path d="M 5440.0 490.0 L 5280.0 560.0" fill="none" stroke="#1e1e1e" stroke-width="1.4"/>
<polygon points="5280.0,560.0 5286.1,553.3 5289.0,560.1" fill="#1e1e1e"/>
<path d="M 5440.0 490.0 L 5600.0 560.0" fill="none" stroke="#1e1e1e" stroke-width="1.4"/>
<polygon points="5600.0,560.0 5591.0,560.1 5593.9,553.3" fill="#1e1e1e"/>
<path d="M 6080.0 490.0 L 5920.0 560.0" fill="none" stroke="#1e1e1e" stroke-width="1.4"/>
<polygon points="5920.0,560.0 5926.1,553.3 5929.0,560.1" fill="#1e1e1e"/>
<path d="M 6080.0 490.0 L 6240.0 560.0" fill="none" stroke="#1e1e1e" stroke-width="1.4"/>
<polygon points="6240.0,560.0 6231.0,560.1 6233.9,553.3" fill="#1e1e1e"/>
<path d="M 5760.0 350.0 L 5440.0 420.0" fill="none" stroke="#1e1e1e" stroke-width="1.4"/>
<polygon points="5440.0,420.0 5447.2,414.7 5448.8,421.8" fill="#1e1e1e"/>
<path d="M 5760.0 350.0 L 6080.0 420.0" fill="none" stroke="#1e1e1e" stroke-width="1.4"/>
<polygon points="6080.0,420.0 6071.2,421.8 6072.8,414.7" fill="#1e1e1e"/>
<path d="M 7200.0 350.0 L 6560.0 420.0" fill="none" stroke="#1e1e1e" stroke-width="1.4"/>
<polygon points="6560.0,420.0 6567.8,415.5 6568.6,422.8" fill="#1e1e1e"/>
<path d="M 7200.0 350.0 L 6880.0 420.0" fill="none" stroke="#1e1e1e" stroke-width="1.4"/>
<polygon points="6880.0,420.0 6887.2,414.7 6888.8,421.8" fill="#1e1e1e"/>
<path d="M 7200.0 350.0 L 7200.0 420.0" fill="none" stroke="#1e1e1e" stroke-width="1.4"/>
<polygon points="7200.0,420.0 7196.3,411.8 7203.7,411.8" fill="#1e1e1e"/>
<path d="M 7200.0 350.0 L 7520.0 420.0" fill="none" stroke="#1e1e1e" stroke-width="1.4"/>
<polygon points="7520.0,420.0 7511.2,421.8 7512.8,414.7" fill="#1e1e1e"/>
<path d="M 7200.0 350.0 L 7840.0 420.0" fill="none" stroke="#1e1e1e" stroke-width="1.4"/>
<polygon points="7840.0,420.0 7831.4,422.8 7832.2,415.5" fill="#1e1e1e"/>
<path d="M 5760.0 210.0 L 4320.0 280.0" fill="none" stroke="#1e1e1e" stroke-width="1.4"/>
<polygon points="4320.0,280.0 4328.0,275.9 4328.4,283.3" fill="#1e1e1e"/>
<path d="M 5760.0 210.0 L 5760.0 280.0" fill="none" stroke="#1e1e1e" stroke-width="1.4"/>
<polygon points="5760.0,280.0 5756.3,271.8 5763.7,271.8" fill="#1e1e1e"/>
<path d="M 5760.0 210.0 L 7200.0 280.0" fill="none" stroke="#1e1e1e" stroke-width="1.4"/>
<polygon points="7200.0,280.0 7191.6,283.3 7192.0,275.9" fill="#1e1e1e"/>
<path d="M 8640.0 350.0 L 8480.0 420.0" fill="none" stroke="#1e1e1e" stroke-width="1.4"/>
<polygon points="8480.0,420.0 8486.1,413.3 8489.0,420.1" fill="#1e1e1e"/>
<path d="M 8640.0 350.0 L 8800.0 420.0" fill="none" stroke="#1e1e1e" stroke-width="1.4"/>
<polygon points="8800.0,420.0 8791.0,420.1 8793.9,413.3" fill="#1e1e1e"/>
<path d="M 9280.0 350.0 L 9120.0 420.0" fill="none" stroke="#1e1e1e" stroke-width="1.4"/>
<polygon points="9120.0,420.0 9126.1,413.3 9129.0,420.1" fill="#1e1e1e"/>
<path d="M 9280.0 350.0 L 9440.0 420.0" fill="none" stroke="#1e1e1e" stroke-width="1.4"/>
<polygon points="9440.0,420.0 9431.0,420.1 9433.9,413.3" fill="#1e1e1e"/>
<path d="M 9920.0 350.0 L 9760.0 420.0" fill="none" stroke="#1e1e1e" stroke-width="1.4"/>
<polygon points="9760.0,420.0 9766.1,413.3 9769.0,420.1" fill="#1e1e1e"/>
<path d="M 9920.0 350.0 L 10080.0 420.0" fill="none" stroke="#1e1e1e" stroke-width="1.4"/>
<polygon points="10080.0,420.0 10071.0,420.1 10073.9,413.3" fill="#1e1e1e"/>
<path d="M 9000.0 210.0 L 8160.0 280.0" fill="none" stroke="#1e1e1e" stroke-width="1.4"/>
<polygon points="8160.0,280.0 8167.9,275.7 8168.5,283.0" fill="#1e1e1e"/>
<path d="M 9000.0 210.0 L 8640.0 280.0" fill="none" stroke="#1e1e1e" stroke-width="1.4"/>
<polygon points="8640.0,280.0 8647.4,274.8 8648.8,282.0" fill="#1e1e1e"/>
<path d="M 9000.0 210.0 L 9280.0 280.0" fill="none" stroke="#1e1e1e" stroke-width="1.4"/>
<polygon points="9280.0,280.0 9271.1,281.6 9272.9,274.4" fill="#1e1e1e"/>
<path d="M 9000.0 210.0 L 9920.0 280.0" fill="none" stroke="#1e1e1e" stroke-width="1.4"/>
<polygon points="9920.0,280.0 9911.5,283.0 9912.1,275.7" fill="#1e1e1e"/>
<path d="M 11360.0 490.0 L 11040.0 560.0" fill="none" stroke="#1e1e1e" stroke-width="1.4"/>
<polygon points="11040.0,560.0 11047.2,554.7 11048.8,561.8" fill="#1e1e1e"/>
<path d="M 11360.0 490.0 L 11360.0 560.0" fill="none" stroke="#1e1e1e" stroke-width="1.4"/>
<polygon points="11360.0,560.0 11356.3,551.8 11363.7,551.8" fill="#1e1e1e"/>
<path d="M 11360.0 490.0 L 11680.0 560.0" fill="none" stroke="#1e1e1e" stroke-width="1.4"/>
<polygon points="11680.0,560.0 11671.2,561.8 11672.8,554.7" fill="#1e1e1e"/>
<path d="M 10826.0 350.0 L 10400.0 420.0" fill="none" stroke="#1e1e1e" stroke-width="1.4"/>
<polygon points="10400.0,420.0 10407.5,415.0 10408.7,422.3" fill="#1e1e1e"/>
<path d="M 10826.0 350.0 L 10720.0 420.0" fill="none" stroke="#1e1e1e" stroke-width="1.4"/>
<polygon points="10720.0,420.0 10724.8,412.4 10728.9,418.5" fill="#1e1e1e"/>
<path d="M 10826.0 350.0 L 11360.0 420.0" fill="none" stroke="#1e1e1e" stroke-width="1.4"/>
<polygon points="11360.0,420.0 11351.4,422.6 11352.3,415.3" fill="#1e1e1e"/>
<path d="M 12320.0 350.0 L 12000.0 420.0" fill="none" stroke="#1e1e1e" stroke-width="1.4"/>
<polygon points="12000.0,420.0 12007.2,414.7 12008.8,421.8" fill="#1e1e1e"/>
<path d="M 12320.0 350.0 L 12320.0 420.0" fill="none" stroke="#1e1e1e" stroke-width="1.4"/>
<polygon points="12320.0,420.0 12316.3,411.8 12323.7,411.8" fill="#1e1e1e"/>
<path d="M 12320.0 350.0 L 12640.0 420.0" fill="none" stroke="#1e1e1e" stroke-width="1.4"/>
<polygon points="12640.0,420.0 12631.2,421.8 12632.8,414.7" fill="#1e1e1e"/>
<path d="M 13920.0 490.0 L 13280.0 560.0" fill="none" stroke="#1e1e1e" stroke-width="1.4"/>
<polygon points="13280.0,560.0 13287.8,555.5 13288.6,562.8" fill="#1e1e1e"/>
<path d="M 13920.0 490.0 L 13600.0 560.0" fill="none" stroke="#1e1e1e" stroke-width="1.4"/>
<polygon points="13600.0,560.0 13607.2,554.7 13608.8,561.8" fill="#1e1e1e"/>
<path d="M 13920.0 490.0 L 13920.0 560.0" fill="none" stroke="#1e1e1e" stroke-width="1.4"/>
<polygon points="13920.0,560.0 13916.3,551.8 13923.7,551.8" fill="#1e1e1e"/>
<path d="M 13920.0 490.0 L 14240.0 560.0" fill="none" stroke="#1e1e1e" stroke-width="1.4"/>
<polygon points="14240.0,560.0 14231.2,561.8 14232.8,554.7" fill="#1e1e1e"/>
<path d="M 13920.0 490.0 L 14560.0 560.0" fill="none" stroke="#1e1e1e" stroke-width="1.4"/>
<polygon points="14560.0,560.0 14551.4,562.8 14552.2,555.5" fill="#1e1e1e"/>
<path d="M 13920.0 350.0 L 12960.0 420.0" fill="none" stroke="#1e1e1e" stroke-width="1.4"/>
<polygon points="12960.0,420.0 12967.9,415.7 12968.5,423.1" fill="#1e1e1e"/>
<path d="M 13920.0 350.0 L 13920.0 420.0" fill="none" stroke="#1e1e1e" stroke-width="1.4"/>
<polygon points="13920.0,420.0 13916.3,411.8 13923.7,411.8" fill="#1e1e1e"/>
<path d="M 13920.0 350.0 L 14880.0 420.0" fill="none" stroke="#1e1e1e" stroke-width="1.4"/>
<polygon points="14880.0,420.0 14871.5,423.1 14872.1,415.7" fill="#1e1e1e"/>
<path d="M 15680.0 350.0 L 15200.0 420.0" fill="none" stroke="#1e1e1e" stroke-width="1.4"/>
<polygon points="15200.0,420.0 15207.6,415.2 15208.7,422.4" fill="#1e1e1e"/>
<path d="M 15680.0 350.0 L 15520.0 420.0" fill="none" stroke="#1e1e1e" stroke-width="1.4"/>
<polygon points="15520.0,420.0 15526.1,413.3 15529.0,420.1" fill="#1e1e1e"/>
<path d="M 15680.0 350.0 L 15840.0 420.0" fill="none" stroke="#1e1e1e" stroke-width="1.4"/>
<polygon points="15840.0,420.0 15831.0,420.1 15833.9,413.3" fill="#1e1e1e"/>
<path d="M 15680.0 350.0 L 16160.0 420.0" fill="none" stroke="#1e1e1e" stroke-width="1.4"/>
<polygon points="16160.0,420.0 16151.3,422.4 16152.4,415.2" fill="#1e1e1e"/>
<path d="M 13186.0 210.0 L 10826.0 280.0" fill="none" stroke="#1e1e1e" stroke-width="1.4"/>
<polygon points="10826.0,280.0 10834.1,276.1 10834.3,283.4" fill="#1e1e1e"/>
<path d="M 13186.0 210.0 L 12320.0 280.0" fill="none" stroke="#1e1e1e" stroke-width="1.4"/>
<polygon points="12320.0,280.0 12327.9,275.7 12328.5,283.0" fill="#1e1e1e"/>
<path d="M 13186.0 210.0 L 13920.0 280.0" fill="none" stroke="#1e1e1e" stroke-width="1.4"/>
<polygon points="13920.0,280.0 13911.5,282.9 13912.2,275.6" fill="#1e1e1e"/>
<path d="M 13186.0 210.0 L 15680.0 280.0" fill="none" stroke="#1e1e1e" stroke-width="1.4"/>
<polygon points="15680.0,280.0 15671.7,283.4 15671.9,276.1" fill="#1e1e1e"/>
<path d="M 17280.0 350.0 L 16800.0 420.0" fill="none" stroke="#1e1e1e" stroke-width="1.4"/>
<polygon points="16800.0,420.0 16807.6,415.2 16808.7,422.4" fill="#1e1e1e"/>
<path d="M 17280.0 350.0 L 17120.0 420.0" fill="none" stroke="#1e1e1e" stroke-width="1.4"/>
<polygon points="17120.0,420.0 17126.1,413.3 17129.0,420.1" fill="#1e1e1e"/>
<path d="M 17280.0 350.0 L 17440.0 420.0" fill="none" stroke="#1e1e1e" stroke-width="1.4"/>
<polygon points="17440.0,420.0 17431.0,420.1 17433.9,413.3" fill="#1e1e1e"/>
<path d="M 17280.0 350.0 L 17760.0 420.0" fill="none" stroke="#1e1e1e" stroke-width="1.4"/>
<polygon points="17760.0,420.0 17751.3,422.4 17752.4,415.2" fill="#1e1e1e"/>
<path d="M 17792.0 210.0 L 16480.0 280.0" fill="none" stroke="#1e1e1e" stroke-width="1.4"/>
<polygon points="16480.0,280.0 16488.0,275.9 16488.4,283.2" fill="#1e1e1e"/>
<path d="M 17792.0 210.0 L 17280.0 280.0" fill="none" stroke="#1e1e1e" stroke-width="1.4"/>
<polygon points="17280.0,280.0 17287.6,275.3 17288.6,282.5" fill="#1e1e1e"/>
<path d="M 17792.0 210.0 L 18080.0 280.0" fill="none" stroke="#1e1e1e" stroke-width="1.4"/>
<polygon points="18080.0,280.0 18071.1,281.6 18072.9,274.5" fill="#1e1e1e"/>
<path d="M 17792.0 210.0 L 18400.0 280.0" fill="none" stroke="#1e1e1e" stroke-width="1.4"/>
<polygon points="18400.0,280.0 18391.4,282.7 18392.3,275.4" fill="#1e1e1e"/>
<path d="M 17792.0 210.0 L 18720.0 280.0" fill="none" stroke="#1e1e1e" stroke-width="1.4"/>
<polygon points="18720.0,280.0 18711.5,283.0 18712.1,275.7" fill="#1e1e1e"/>
<path d="M 20960.0 350.0 L 20640.0 420.0" fill="none" stroke="#1e1e1e" stroke-width="1.4"/>
<polygon points="20640.0,420.0 20647.2,414.7 20648.8,421.8" fill="#1e1e1e"/>
<path d="M 20960.0 350.0 L 20960.0 420.0" fill="none" stroke="#1e1e1e" stroke-width="1.4"/>
<polygon points="20960.0,420.0 20956.3,411.8 20963.7,411.8" fill="#1e1e1e"/>
<path d="M 20960.0 350.0 L 21280.0 420.0" fill="none" stroke="#1e1e1e" stroke-width="1.4"/>
<polygon points="21280.0,420.0 21271.2,421.8 21272.8,414.7" fill="#1e1e1e"/>
<path d="M 19893.0 210.0 L 19040.0 280.0" fill="none" stroke="#1e1e1e" stroke-width="1.4"/>
<polygon points="19040.0,280.0 19047.9,275.7 19048.5,283.0" fill="#1e1e1e"/>
<path d="M 19893.0 210.0 L 19360.0 280.0" fill="none" stroke="#1e1e1e" stroke-width="1.4"/>
<polygon points="19360.0,280.0 19367.7,275.3 19368.6,282.6" fill="#1e1e1e"/>
<path d="M 19893.0 210.0 L 19680.0 280.0" fill="none" stroke="#1e1e1e" stroke-width="1.4"/>
<polygon points="19680.0,280.0 19686.7,273.9 19689.0,280.9" fill="#1e1e1e"/>
<path d="M 19893.0 210.0 L 20000.0 280.0" fill="none" stroke="#1e1e1e" stroke-width="1.4"/>
<polygon points="20000.0,280.0 19991.1,278.6 19995.1,272.4" fill="#1e1e1e"/>
<path d="M 19893.0 210.0 L 20320.0 280.0" fill="none" stroke="#1e1e1e" stroke-width="1.4"/>
<polygon points="20320.0,280.0 20311.3,282.3 20312.5,275.0" fill="#1e1e1e"/>
<path d="M 19893.0 210.0 L 20960.0 280.0" fill="none" stroke="#1e1e1e" stroke-width="1.4"/>
<polygon points="20960.0,280.0 20951.6,283.1 20952.0,275.8" fill="#1e1e1e"/>
<path d="M 22240.0 210.0 L 21600.0 280.0" fill="none" stroke="#1e1e1e" stroke-width="1.4"/>
<polygon points="21600.0,280.0 21607.8,275.5 21608.6,282.8" fill="#1e1e1e"/>
<path d="M 22240.0 210.0 L 21920.0 280.0" fill="none" stroke="#1e1e1e" stroke-width="1.4"/>
<polygon points="21920.0,280.0 21927.2,274.7 21928.8,281.8" fill="#1e1e1e"/>
<path d="M 22240.0 210.0 L 22240.0 280.0" fill="none" stroke="#1e1e1e" stroke-width="1.4"/>
<polygon points="22240.0,280.0 22236.3,271.8 22243.7,271.8" fill="#1e1e1e"/>
<path d="M 22240.0 210.0 L 22560.0 280.0" fill="none" stroke="#1e1e1e" stroke-width="1.4"/>
<polygon points="22560.0,280.0 22551.2,281.8 22552.8,274.7" fill="#1e1e1e"/>
<path d="M 22240.0 210.0 L 22880.0 280.0" fill="none" stroke="#1e1e1e" stroke-width="1.4"/>
<polygon points="22880.0,280.0 22871.4,282.8 22872.2,275.5" fill="#1e1e1e"/>
<path d="M 11384.0 70.0 L 800.0 140.0" fill="none" stroke="#1e1e1e" stroke-width="1.4"/>
<polygon points="800.0,140.0 808.2,136.3 808.2,143.6" fill="#1e1e1e"/>
<path d="M 11384.0 70.0 L 2400.0 140.0" fill="none" stroke="#1e1e1e" stroke-width="1.4"/>
<polygon points="2400.0,140.0 2408.2,136.3 2408.2,143.6" fill="#1e1e1e"/>
<path d="M 11384.0 70.0 L 5760.0 140.0" fill="none" stroke="#1e1e1e" stroke-width="1.4"/>
<polygon points="5760.0,140.0 5768.2,136.2 5768.3,143.6" fill="#1e1e1e"/>
<path d="M 11384.0 70.0 L 9000.0 140.0" fill="none" stroke="#1e1e1e" stroke-width="1.4"/>
<polygon points="9000.0,140.0 9008.1,136.1 9008.3,143.4" fill="#1e1e1e"/>
<path d="M 11384.0 70.0 L 13186.0 140.0" fill="none" stroke="#1e1e1e" stroke-width="1.4"/>
<polygon points="13186.0,140.0 13177.6,143.3 13177.9,136.0" fill="#1e1e1e"/>
<path d="M 11384.0 70.0 L 17792.0 140.0" fill="none" stroke="#1e1e1e" stroke-width="1.4"/>
<polygon points="17792.0,140.0 17783.7,143.6 17783.8,136.2" fill="#1e1e1e"/>
<path d="M 11384.0 70.0 L 19893.0 140.0" fill="none" stroke="#1e1e1e" stroke-width="1.4"/>
<polygon points="19893.0,140.0 19884.8,143.6 19884.8,136.3" fill="#1e1e1e"/>
<path d="M 11384.0 70.0 L 22240.0 140.0" fill="none" stroke="#1e1e1e" stroke-width="1.4"/>
<polygon points="22240.0,140.0 22231.8,143.6 22231.8,136.3" fill="#1e1e1e"/>
<rect x="20.0" y="280.0" width="280.0" height="70.0" rx="8" fill="#b2f2bb" stroke="#1e1e1e" stroke-width="1.2"/>
<rect x="340.0" y="280.0" width="280.0" height="70.0" rx="8" fill="#b2f2bb" stroke="#1e1e1e" stroke-width="1.2"/>
<rect x="660.0" y="280.0" width="280.0" height="70.0" rx="8" fill="#b2f2bb" stroke="#1e1e1e" stroke-width="1.2"/>
<rect x="980.0" y="280.0" width="280.0" height="70.0" rx="8" fill="#b2f2bb" stroke="#1e1e1e" stroke-width="1.2"/>
<rect x="1300.0" y="280.0" width="280.0" height="70.0" rx="8" fill="#b2f2bb" stroke="#1e1e1e" stroke-width="1.2"/>
<rect x="660.0" y="140.0" width="280.0" height="70.0" rx="8" fill="#ffd8a8" stroke="#1e1e1e" stroke-width="1.2"/>
<rect x="1620.0" y="420.0" width="280.0" height="70.0" rx="8" fill="#a5d8ff" stroke="#1e1e1e" stroke-width="1.2"/>
<rect x="1940.0" y="420.0" width="280.0" height="70.0" rx="8" fill="#a5d8ff" stroke="#1e1e1e" stroke-width="1.2"/>
<rect x="1780.0" y="280.0" width="280.0" height="70.0" rx="8" fill="#b2f2bb" stroke="#1e1e1e" stroke-width="1.2"/>
<rect x="2260.0" y="420.0" width="280.0" height="70.0" rx="8" fill="#a5d8ff" stroke="#1e1e1e" stroke-width="1.2"/>
<rect x="2580.0" y="420.0" width="280.0" height="70.0" rx="8" fill="#a5d8ff" stroke="#1e1e1e" stroke-width="1.2"/>
<rect x="2900.0" y="420.0" width="280.0" height="70.0" rx="8" fill="#a5d8ff" stroke="#1e1e1e" stroke-width="1.2"/>
<rect x="3220.0" y="420.0" width="280.0" height="70.0" rx="8" fill="#a5d8ff" stroke="#1e1e1e" stroke-width="1.2"/>
<rect x="2740.0" y="280.0" width="280.0" height="70.0" rx="8" fill="#b2f2bb" stroke="#1e1e1e" stroke-width="1.2"/>
<rect x="2260.0" y="140.0" width="280.0" height="70.0" rx="8" fill="#ffd8a8" stroke="#1e1e1e" stroke-width="1.2"/>
<rect x="3540.0" y="420.0" width="280.0" height="70.0" rx="8" fill="#a5d8ff" stroke="#1e1e1e" stroke-width="1.2"/>
<rect x="3860.0" y="420.0" width="280.0" height="70.0" rx="8" fill="#a5d8ff" stroke="#1e1e1e" stroke-width="1.2"/>
<rect x="4180.0" y="420.0" width="280.0" height="70.0" rx="8" fill="#a5d8ff" stroke="#1e1e1e" stroke-width="1.2"/>
<rect x="4500.0" y="420.0" width="280.0" height="70.0" rx="8" fill="#a5d8ff" stroke="#1e1e1e" stroke-width="1.2"/>
<rect x="4820.0" y="420.0" width="280.0" height="70.0" rx="8" fill="#a5d8ff" stroke="#1e1e1e" stroke-width="1.2"/>
<rect x="4180.0" y="280.0" width="280.0" height="70.0" rx="8" fill="#b2f2bb" stroke="#1e1e1e" stroke-width="1.2"/>
<rect x="5140.0" y="560.0" width="280.0" height="70.0" rx="8" fill="#ffec99" stroke="#1e1e1e" stroke-width="1.2"/>
<rect x="5460.0" y="560.0" width="280.0" height="70.0" rx="8" fill="#ffec99" stroke="#1e1e1e" stroke-width="1.2"/>
<rect x="5300.0" y="420.0" width="280.0" height="70.0" rx="8" fill="#a5d8ff" stroke="#1e1e1e" stroke-width="1.2"/>
<rect x="5780.0" y="560.0" width="280.0" height="70.0" rx="8" fill="#ffec99" stroke="#1e1e1e" stroke-width="1.2"/>
<rect x="6100.0" y="560.0" width="280.0" height="70.0" rx="8" fill="#ffec99" stroke="#1e1e1e" stroke-width="1.2"/>
<rect x="5940.0" y="420.0" width="280.0" height="70.0" rx="8" fill="#a5d8ff" stroke="#1e1e1e" stroke-width="1.2"/>
<rect x="5620.0" y="280.0" width="280.0" height="70.0" rx="8" fill="#b2f2bb" stroke="#1e1e1e" stroke-width="1.2"/>
<rect x="6420.0" y="420.0" width="280.0" height="70.0" rx="8" fill="#a5d8ff" stroke="#1e1e1e" stroke-width="1.2"/>
<rect x="6740.0" y="420.0" width="280.0" height="70.0" rx="8" fill="#a5d8ff" stroke="#1e1e1e" stroke-width="1.2"/>
<rect x="7060.0" y="420.0" width="280.0" height="70.0" rx="8" fill="#a5d8ff" stroke="#1e1e1e" stroke-width="1.2"/>
<rect x="7380.0" y="420.0" width="280.0" height="70.0" rx="8" fill="#a5d8ff" stroke="#1e1e1e" stroke-width="1.2"/>
<rect x="7700.0" y="420.0" width="280.0" height="70.0" rx="8" fill="#a5d8ff" stroke="#1e1e1e" stroke-width="1.2"/>
<rect x="7060.0" y="280.0" width="280.0" height="70.0" rx="8" fill="#b2f2bb" stroke="#1e1e1e" stroke-width="1.2"/>
<rect x="5620.0" y="140.0" width="280.0" height="70.0" rx="8" fill="#ffd8a8" stroke="#1e1e1e" stroke-width="1.2"/>
<rect x="8020.0" y="280.0" width="280.0" height="70.0" rx="8" fill="#b2f2bb" stroke="#1e1e1e" stroke-width="1.2"/>
<rect x="8340.0" y="420.0" width="280.0" height="70.0" rx="8" fill="#a5d8ff" stroke="#1e1e1e" stroke-width="1.2"/>
<rect x="8660.0" y="420.0" width="280.0" height="70.0" rx="8" fill="#a5d8ff" stroke="#1e1e1e" stroke-width="1.2"/>
<rect x="8500.0" y="280.0" width="280.0" height="70.0" rx="8" fill="#b2f2bb" stroke="#1e1e1e" stroke-width="1.2"/>
<rect x="8980.0" y="420.0" width="280.0" height="70.0" rx="8" fill="#a5d8ff" stroke="#1e1e1e" stroke-width="1.2"/>
<rect x="9300.0" y="420.0" width="280.0" height="70.0" rx="8" fill="#a5d8ff" stroke="#1e1e1e" stroke-width="1.2"/>
<rect x="9140.0" y="280.0" width="280.0" height="70.0" rx="8" fill="#b2f2bb" stroke="#1e1e1e" stroke-width="1.2"/>
<rect x="9620.0" y="420.0" width="280.0" height="70.0" rx="8" fill="#a5d8ff" stroke="#1e1e1e" stroke-width="1.2"/>
<rect x="9940.0" y="420.0" width="280.0" height="70.0" rx="8" fill="#a5d8ff" stroke="#1e1e1e" stroke-width="1.2"/>
<rect x="9780.0" y="280.0" width="280.0" height="70.0" rx="8" fill="#b2f2bb" stroke="#1e1e1e" stroke-width="1.2"/>
<rect x="8860.0" y="140.0" width="280.0" height="70.0" rx="8" fill="#ffd8a8" stroke="#1e1e1e" stroke-width="1.2"/>
<rect x="10260.0" y="420.0" width="280.0" height="70.0" rx="8" fill="#a5d8ff" stroke="#1e1e1e" stroke-width="1.2"/>
<rect x="10580.0" y="420.0" width="280.0" height="70.0" rx="8" fill="#a5d8ff" stroke="#1e1e1e" stroke-width="1.2"/>
<rect x="10900.0" y="560.0" width="280.0" height="70.0" rx="8" fill="#ffec99" stroke="#1e1e1e" stroke-width="1.2"/>
<rect x="11220.0" y="560.0" width="280.0" height="70.0" rx="8" fill="#ffec99" stroke="#1e1e1e" stroke-width="1.2"/>
<rect x="11540.0" y="560.0" width="280.0" height="70.0" rx="8" fill="#ffec99" stroke="#1e1e1e" stroke-width="1.2"/>
<rect x="11220.0" y="420.0" width="280.0" height="70.0" rx="8" fill="#a5d8ff" stroke="#1e1e1e" stroke-width="1.2"/>
<rect x="10686.0" y="280.0" width="280.0" height="70.0" rx="8" fill="#b2f2bb" stroke="#1e1e1e" stroke-width="1.2"/>
<rect x="11860.0" y="420.0" width="280.0" height="70.0" rx="8" fill="#a5d8ff" stroke="#1e1e1e" stroke-width="1.2"/>
<rect x="12180.0" y="420.0" width="280.0" height="70.0" rx="8" fill="#a5d8ff" stroke="#1e1e1e" stroke-width="1.2"/>
<rect x="12500.0" y="420.0" width="280.0" height="70.0" rx="8" fill="#a5d8ff" stroke="#1e1e1e" stroke-width="1.2"/>
<rect x="12180.0" y="280.0" width="280.0" height="70.0" rx="8" fill="#b2f2bb" stroke="#1e1e1e" stroke-width="1.2"/>
<rect x="12820.0" y="420.0" width="280.0" height="70.0" rx="8" fill="#a5d8ff" stroke="#1e1e1e" stroke-width="1.2"/>
<rect x="13140.0" y="560.0" width="280.0" height="70.0" rx="8" fill="#ffec99" stroke="#1e1e1e" stroke-width="1.2"/>
<rect x="13460.0" y="560.0" width="280.0" height="70.0" rx="8" fill="#ffec99" stroke="#1e1e1e" stroke-width="1.2"/>
<rect x="13780.0" y="560.0" width="280.0" height="70.0" rx="8" fill="#ffec99" stroke="#1e1e1e" stroke-width="1.2"/>
<rect x="14100.0" y="560.0" width="280.0" height="70.0" rx="8" fill="#ffec99" stroke="#1e1e1e" stroke-width="1.2"/>
<rect x="14420.0" y="560.0" width="280.0" height="70.0" rx="8" fill="#ffec99" stroke="#1e1e1e" stroke-width="1.2"/>
<rect x="13780.0" y="420.0" width="280.0" height="70.0" rx="8" fill="#a5d8ff" stroke="#1e1e1e" stroke-width="1.2"/>
<rect x="14740.0" y="420.0" width="280.0" height="70.0" rx="8" fill="#a5d8ff" stroke="#1e1e1e" stroke-width="1.2"/>
<rect x="13780.0" y="280.0" width="280.0" height="70.0" rx="8" fill="#b2f2bb" stroke="#1e1e1e" stroke-width="1.2"/>
<rect x="15060.0" y="420.0" width="280.0" height="70.0" rx="8" fill="#a5d8ff" stroke="#1e1e1e" stroke-width="1.2"/>
<rect x="15380.0" y="420.0" width="280.0" height="70.0" rx="8" fill="#a5d8ff" stroke="#1e1e1e" stroke-width="1.2"/>
<rect x="15700.0" y="420.0" width="280.0" height="70.0" rx="8" fill="#a5d8ff" stroke="#1e1e1e" stroke-width="1.2"/>
<rect x="16020.0" y="420.0" width="280.0" height="70.0" rx="8" fill="#a5d8ff" stroke="#1e1e1e" stroke-width="1.2"/>
<rect x="15540.0" y="280.0" width="280.0" height="70.0" rx="8" fill="#b2f2bb" stroke="#1e1e1e" stroke-width="1.2"/>
<rect x="13046.0" y="140.0" width="280.0" height="70.0" rx="8" fill="#ffd8a8" stroke="#1e1e1e" stroke-width="1.2"/>
<rect x="16340.0" y="280.0" width="280.0" height="70.0" rx="8" fill="#b2f2bb" stroke="#1e1e1e" stroke-width="1.2"/>
<rect x="16660.0" y="420.0" width="280.0" height="70.0" rx="8" fill="#a5d8ff" stroke="#1e1e1e" stroke-width="1.2"/>
<rect x="16980.0" y="420.0" width="280.0" height="70.0" rx="8" fill="#a5d8ff" stroke="#1e1e1e" stroke-width="1.2"/>
<rect x="17300.0" y="420.0" width="280.0" height="70.0" rx="8" fill="#a5d8ff" stroke="#1e1e1e" stroke-width="1.2"/>
<rect x="17620.0" y="420.0" width="280.0" height="70.0" rx="8" fill="#a5d8ff" stroke="#1e1e1e" stroke-width="1.2"/>
<rect x="17140.0" y="280.0" width="280.0" height="70.0" rx="8" fill="#b2f2bb" stroke="#1e1e1e" stroke-width="1.2"/>
<rect x="17940.0" y="280.0" width="280.0" height="70.0" rx="8" fill="#b2f2bb" stroke="#1e1e1e" stroke-width="1.2"/>
<rect x="18260.0" y="280.0" width="280.0" height="70.0" rx="8" fill="#b2f2bb" stroke="#1e1e1e" stroke-width="1.2"/>
<rect x="18580.0" y="280.0" width="280.0" height="70.0" rx="8" fill="#b2f2bb" stroke="#1e1e1e" stroke-width="1.2"/>
<rect x="17652.0" y="140.0" width="280.0" height="70.0" rx="8" fill="#ffd8a8" stroke="#1e1e1e" stroke-width="1.2"/>
<rect x="18900.0" y="280.0" width="280.0" height="70.0" rx="8" fill="#b2f2bb" stroke="#1e1e1e" stroke-width="1.2"/>
<rect x="19220.0" y="280.0" width="280.0" height="70.0" rx="8" fill="#b2f2bb" stroke="#1e1e1e" stroke-width="1.2"/>
<rect x="19540.0" y="280.0" width="280.0" height="70.0" rx="8" fill="#b2f2bb" stroke="#1e1e1e" stroke-width="1.2"/>
<rect x="19860.0" y="280.0" width="280.0" height="70.0" rx="8" fill="#b2f2bb" stroke="#1e1e1e" stroke-width="1.2"/>
<rect x="20180.0" y="280.0" width="280.0" height="70.0" rx="8" fill="#b2f2bb" stroke="#1e1e1e" stroke-width="1.2"/>
<rect x="20500.0" y="420.0" width="280.0" height="70.0" rx="8" fill="#a5d8ff" stroke="#1e1e1e" stroke-width="1.2"/>
<rect x="20820.0" y="420.0" width="280.0" height="70.0" rx="8" fill="#a5d8ff" stroke="#1e1e1e" stroke-width="1.2"/>
<rect x="21140.0" y="420.0" width="280.0" height="70.0" rx="8" fill="#a5d8ff" stroke="#1e1e1e" stroke-width="1.2"/>
<rect x="20820.0" y="280.0" width="280.0" height="70.0" rx="8" fill="#b2f2bb" stroke="#1e1e1e" stroke-width="1.2"/>
<rect x="19753.0" y="140.0" width="280.0" height="70.0" rx="8" fill="#ffd8a8" stroke="#1e1e1e" stroke-width="1.2"/>
<rect x="21460.0" y="280.0" width="280.0" height="70.0" rx="8" fill="#b2f2bb" stroke="#1e1e1e" stroke-width="1.2"/>
<rect x="21780.0" y="280.0" width="280.0" height="70.0" rx="8" fill="#b2f2bb" stroke="#1e1e1e" stroke-width="1.2"/>
<rect x="22100.0" y="280.0" width="280.0" height="70.0" rx="8" fill="#b2f2bb" stroke="#1e1e1e" stroke-width="1.2"/>
<rect x="22420.0" y="280.0" width="280.0" height="70.0" rx="8" fill="#b2f2bb" stroke="#1e1e1e" stroke-width="1.2"/>
<rect x="22740.0" y="280.0" width="280.0" height="70.0" rx="8" fill="#b2f2bb" stroke="#1e1e1e" stroke-width="1.2"/>
<rect x="22100.0" y="140.0" width="280.0" height="70.0" rx="8" fill="#ffd8a8" stroke="#1e1e1e" stroke-width="1.2"/>
<rect x="11244.0" y="0.0" width="280.0" height="70.0" rx="8" fill="#d0bfff" stroke="#1e1e1e" stroke-width="1.2"/>
<text x="28.0" y="308.6" font-size="16" fill="#1e1e1e">Beitrag zur Erreichung</text>
<text x="28.0" y="328.6" font-size="16" fill="#1e1e1e">nationaler Klimaschutzziele</text>
<text x="348.0" y="308.6" font-size="16" fill="#1e1e1e">Einsparung von</text>
<text x="348.0" y="328.6" font-size="16" fill="#1e1e1e">Treibhausgasemissionen</text>
<text x="668.0" y="308.6" font-size="16" fill="#1e1e1e">Nutzung erneuerbarer</text>
<text x="668.0" y="328.6" font-size="16" fill="#1e1e1e">Energien/unvermeidbarer Abwärme</text>
<text x="988.0" y="308.6" font-size="16" fill="#1e1e1e">Grundsätze: Wirtschaftlichkeit,</text>
<text x="988.0" y="328.6" font-size="16" fill="#1e1e1e">Sozialverträglichkeit</text>
<text x="1308.0" y="308.6" font-size="16" fill="#1e1e1e">Nachhaltige Entwicklung der</text>
<text x="1308.0" y="328.6" font-size="16" fill="#1e1e1e">Energieversorgung</text>
<text x="668.0" y="178.6" font-size="16" fill="#1e1e1e">Zweck und Ziel (§ 1)</text>
<text x="1628.0" y="458.6" font-size="16" fill="#1e1e1e">Gebäude (beheizt oder gekühlt)</text>
<text x="1948.0" y="441.7" font-size="13" fill="#1e1e1e">Anlagen/Einrichtungen der Heizungs-,</text>
<text x="1948.0" y="457.9" font-size="13" fill="#1e1e1e">Kühl-, Raumluft-, Beleuchtungstechnik,</text>
<text x="1948.0" y="474.2" font-size="13" fill="#1e1e1e">Warmwasserversorgung</text>
<text x="1788.0" y="318.6" font-size="16" fill="#1e1e1e">Anwendung auf:</text>
<text x="2268.0" y="458.6" font-size="16" fill="#1e1e1e">Betriebsgebäude zur Tierhaltung</text>
<text x="2588.0" y="448.6" font-size="16" fill="#1e1e1e">Unterirdische Bauten,</text>
<text x="2588.0" y="468.6" font-size="16" fill="#1e1e1e">Traglufthallen</text>
<text x="2908.0" y="448.6" font-size="16" fill="#1e1e1e">Gebäude für</text>
<text x="2908.0" y="468.6" font-size="16" fill="#1e1e1e">Gottesdienst/religiöse Zwecke</text>
<text x="3228.0" y="440.6" font-size="14" fill="#1e1e1e">Wohngebäude mit begrenzter</text>
<text x="3228.0" y="458.1" font-size="14" fill="#1e1e1e">jährlicher Nutzungsdauer (unter 4</text>
<text x="3228.0" y="475.6" font-size="14" fill="#1e1e1e">Monate oder &lt; 25% Energieverbrauch)</text>
<text x="2748.0" y="318.6" font-size="16" fill="#1e1e1e">Ausnahmen (u.a.):</text>
<text x="2268.0" y="178.6" font-size="16" fill="#1e1e1e">Anwendungsbereich (§ 2)</text>
<text x="3548.0" y="448.6" font-size="16" fill="#1e1e1e">Grundsatz: Errichtung als</text>
<text x="3548.0" y="468.6" font-size="16" fill="#1e1e1e">Niedrigstenergiegebäude (§ 10)</text>
<text x="3868.0" y="448.6" font-size="16" fill="#1e1e1e">Mindestwärmeschutz (DIN</text>
<text x="3868.0" y="468.6" font-size="16" fill="#1e1e1e">4108-2/3) (§ 11)</text>
<text x="4188.0" y="448.6" font-size="16" fill="#1e1e1e">Wärmebrücken (Einfluss gering</text>
<text x="4188.0" y="468.6" font-size="16" fill="#1e1e1e">halten) (§ 12)</text>
<text x="4508.0" y="448.6" font-size="16" fill="#1e1e1e">Dichtheit (luftundurchlässige</text>
<text x="4508.0" y="468.6" font-size="16" fill="#1e1e1e">Abdichtung) (§ 13)</text>
<text x="4828.0" y="438.6" font-size="16" fill="#1e1e1e">Sommerlicher Wärmeschutz</text>
<text x="4828.0" y="458.6" font-size="16" fill="#1e1e1e">(Sonneneintrag begrenzen) (§</text>
<text x="4828.0" y="478.6" font-size="16" fill="#1e1e1e">14)</text>
<text x="4188.0" y="318.6" font-size="16" fill="#1e1e1e">Allgemeiner Teil (Abschnitt 1)</text>
<text x="5148.0" y="578.6" font-size="16" fill="#1e1e1e">Jahres-Primärenergiebedarf:</text>
<text x="5148.0" y="598.6" font-size="16" fill="#1e1e1e">max. 0,55faches des</text>
<text x="5148.0" y="618.6" font-size="16" fill="#1e1e1e">Referenzgebäudes</text>
<text x="5468.0" y="588.6" font-size="16" fill="#1e1e1e">Transmissionswärmeverlust: max.</text>
<text x="5468.0" y="608.6" font-size="16" fill="#1e1e1e">1,0faches des Referenzgebäudes</text>
<text x="5308.0" y="458.6" font-size="16" fill="#1e1e1e">Wohngebäude (§ 15, § 16)</text>
<text x="5788.0" y="578.6" font-size="16" fill="#1e1e1e">Jahres-Primärenergiebedarf:</text>
<text x="5788.0" y="598.6" font-size="16" fill="#1e1e1e">max. 0,55faches des</text>
<text x="5788.0" y="618.6" font-size="16" fill="#1e1e1e">Referenzgebäudes</text>
<text x="6108.0" y="578.6" font-size="16" fill="#1e1e1e">Mittlere U-Werte der</text>
<text x="6108.0" y="598.6" font-size="16" fill="#1e1e1e">Umfassungsfläche (Anlage 3)</text>
<text x="6108.0" y="618.6" font-size="16" fill="#1e1e1e">nicht überschreiten</text>
<text x="5948.0" y="458.6" font-size="16" fill="#1e1e1e">Nichtwohngebäude (§ 18, § 19)</text>
<text x="5628.0" y="298.6" font-size="16" fill="#1e1e1e">Jahres-Primärenergiebedarf /</text>
<text x="5628.0" y="318.6" font-size="16" fill="#1e1e1e">Baulicher Wärmeschutz</text>
<text x="5628.0" y="338.6" font-size="16" fill="#1e1e1e">(Abschnitt 2)</text>
<text x="6428.0" y="448.6" font-size="16" fill="#1e1e1e">Berechnung nach DIN V 18599:</text>
<text x="6428.0" y="468.6" font-size="16" fill="#1e1e1e">2018-09 (§ 20, § 21)</text>
<text x="6748.0" y="448.6" font-size="16" fill="#1e1e1e">Primärenergiefaktoren (Anlage</text>
<text x="6748.0" y="468.6" font-size="16" fill="#1e1e1e">4) (§ 22)</text>
<text x="7068.0" y="448.6" font-size="16" fill="#1e1e1e">Anrechnung von Strom aus</text>
<text x="7068.0" y="468.6" font-size="16" fill="#1e1e1e">erneuerbaren Energien (§ 23)</text>
<text x="7388.0" y="448.6" font-size="16" fill="#1e1e1e">Vereinfachtes Nachweisverfahren</text>
<text x="7388.0" y="468.6" font-size="16" fill="#1e1e1e">(Wohngebäude, Anlage 5) (§ 31)</text>
<text x="7708.0" y="439.6" font-size="15" fill="#1e1e1e">Vereinfachtes Berechnungsverfahren</text>
<text x="7708.0" y="458.4" font-size="15" fill="#1e1e1e">(Nichtwohngebäude, Anlage 6) (§</text>
<text x="7708.0" y="477.1" font-size="15" fill="#1e1e1e">32)</text>
<text x="7068.0" y="308.6" font-size="16" fill="#1e1e1e">Berechnungsgrundlagen und</text>
<text x="7068.0" y="328.6" font-size="16" fill="#1e1e1e">-verfahren (Abschnitt 3)</text>
<text x="5628.0" y="168.6" font-size="16" fill="#1e1e1e">Anforderungen an zu errichtende</text>
<text x="5628.0" y="188.6" font-size="16" fill="#1e1e1e">Gebäude (Teil 2)</text>
<text x="8028.0" y="308.6" font-size="16" fill="#1e1e1e">Keine Verschlechterung der</text>
<text x="8028.0" y="328.6" font-size="16" fill="#1e1e1e">energetischen Qualität (§ 46)</text>
<text x="8348.0" y="448.6" font-size="16" fill="#1e1e1e">Oberste Geschossdecken: U ≤</text>
<text x="8348.0" y="468.6" font-size="16" fill="#1e1e1e">0,24 W/(m²K) (§ 47 Abs. 1)</text>
<text x="8668.0" y="448.6" font-size="16" fill="#1e1e1e">Frist bei Eigentümerwechsel (2</text>
<text x="8668.0" y="468.6" font-size="16" fill="#1e1e1e">Jahre) (§ 47 Abs. 3)</text>
<text x="8508.0" y="318.6" font-size="16" fill="#1e1e1e">Nachrüstung</text>
<text x="8988.0" y="448.6" font-size="16" fill="#1e1e1e">Höchstwerte der U-Werte (Anlage</text>
<text x="8988.0" y="468.6" font-size="16" fill="#1e1e1e">7) nicht überschreiten</text>
<text x="9308.0" y="438.6" font-size="16" fill="#1e1e1e">Beratungsgespräch bei</text>
<text x="9308.0" y="458.6" font-size="16" fill="#1e1e1e">Wohngebäuden ≤ 2 WE</text>
<text x="9308.0" y="478.6" font-size="16" fill="#1e1e1e">(Eigentümerwechsel) (§ 48)</text>
<text x="9148.0" y="308.6" font-size="16" fill="#1e1e1e">Anforderungen bei</text>
<text x="9148.0" y="328.6" font-size="16" fill="#1e1e1e">Änderung/Ersatz (§ 48)</text>
<text x="9628.0" y="441.7" font-size="13" fill="#1e1e1e">Maximal 40% Überschreitung der</text>
<text x="9628.0" y="457.9" font-size="13" fill="#1e1e1e">Referenzwerte</text>
<text x="9628.0" y="474.2" font-size="13" fill="#1e1e1e">(Jahres-PEB/Transmissionswärmeverlust)</text>
<text x="9948.0" y="448.6" font-size="16" fill="#1e1e1e">Vereinfachte Datenerhebung</text>
<text x="9948.0" y="468.6" font-size="16" fill="#1e1e1e">möglich (§ 50 Abs. 4)</text>
<text x="9788.0" y="308.6" font-size="16" fill="#1e1e1e">Energetische Bewertung</text>
<text x="9788.0" y="328.6" font-size="16" fill="#1e1e1e">(Gesamtbetrachtung) (§ 50)</text>
<text x="8868.0" y="168.6" font-size="16" fill="#1e1e1e">Anforderungen an bestehende</text>
<text x="8868.0" y="188.6" font-size="16" fill="#1e1e1e">Gebäude (Teil 3)</text>
<text x="10268.0" y="438.6" font-size="16" fill="#1e1e1e">Betriebsbereitschaft und</text>
<text x="10268.0" y="458.6" font-size="16" fill="#1e1e1e">sachgerechte Bedienung (§ 58, §</text>
<text x="10268.0" y="478.6" font-size="16" fill="#1e1e1e">59)</text>
<text x="10588.0" y="448.6" font-size="16" fill="#1e1e1e">Regelmäßige Wartung und</text>
<text x="10588.0" y="468.6" font-size="16" fill="#1e1e1e">Instandhaltung (§ 60)</text>
<text x="10908.0" y="578.6" font-size="16" fill="#1e1e1e">Wärmepumpen (ab 6 WE):</text>
<text x="10908.0" y="598.6" font-size="16" fill="#1e1e1e">Betriebsprüfung nach 1</text>
<text x="10908.0" y="618.6" font-size="16" fill="#1e1e1e">Heizperiode (§ 60a)</text>
<text x="11228.0" y="578.6" font-size="16" fill="#1e1e1e">Ältere Heizungsanlagen (ab 6</text>
<text x="11228.0" y="598.6" font-size="16" fill="#1e1e1e">WE): Prüfung/Optimierung</text>
<text x="11228.0" y="618.6" font-size="16" fill="#1e1e1e">(Fristen 2027) (§ 60b)</text>
<text x="11548.0" y="588.6" font-size="16" fill="#1e1e1e">Hydraulischer Abgleich (ab 6</text>
<text x="11548.0" y="608.6" font-size="16" fill="#1e1e1e">WE) (§ 60c)</text>
<text x="11228.0" y="458.6" font-size="16" fill="#1e1e1e">Prüfung/Optimierung</text>
<text x="10694.0" y="308.6" font-size="16" fill="#1e1e1e">Betreiberpflichten (Abschnitt</text>
<text x="10694.0" y="328.6" font-size="16" fill="#1e1e1e">1)</text>
<text x="11868.0" y="439.6" font-size="15" fill="#1e1e1e">Verringerung/Abschaltung der</text>
<text x="11868.0" y="458.4" font-size="15" fill="#1e1e1e">Wärmezufuhr (zentrale,</text>
<text x="11868.0" y="477.1" font-size="15" fill="#1e1e1e">selbsttätige Einrichtung) (§ 61)</text>
<text x="12188.0" y="448.6" font-size="16" fill="#1e1e1e">Raumweise Regelung der</text>
<text x="12188.0" y="468.6" font-size="16" fill="#1e1e1e">Raumtemperatur (§ 63)</text>
<text x="12508.0" y="438.6" font-size="16" fill="#1e1e1e">Wärmedämmung von Rohrleitungen</text>
<text x="12508.0" y="458.6" font-size="16" fill="#1e1e1e">und Armaturen (Anlage 8) (§ 69,</text>
<text x="12508.0" y="478.6" font-size="16" fill="#1e1e1e">§ 70)</text>
<text x="12188.0" y="318.6" font-size="16" fill="#1e1e1e">Einbau und Ersatz (Abschnitt 2)</text>
<text x="12828.0" y="440.6" font-size="14" fill="#1e1e1e">Regel: Mindestens 65% Wärme aus</text>
<text x="12828.0" y="458.1" font-size="14" fill="#1e1e1e">erneuerbaren Energien oder</text>
<text x="12828.0" y="475.6" font-size="14" fill="#1e1e1e">unvermeidbarer Abwärme (§ 71 Abs. 1)</text>
<text x="13148.0" y="598.6" font-size="16" fill="#1e1e1e">Wärmenetzanschluss (§ 71b)</text>
<text x="13468.0" y="598.6" font-size="16" fill="#1e1e1e">Wärmepumpe (§ 71c)</text>
<text x="13788.0" y="578.6" font-size="16" fill="#1e1e1e">Stromdirektheizung (nur bei</text>
<text x="13788.0" y="598.6" font-size="16" fill="#1e1e1e">verschärftem Wärmeschutz) (§</text>
<text x="13788.0" y="618.6" font-size="16" fill="#1e1e1e">71d)</text>
<text x="14108.0" y="588.6" font-size="16" fill="#1e1e1e">Biomasse/grüner oder blauer</text>
<text x="14108.0" y="608.6" font-size="16" fill="#1e1e1e">Wasserstoff (§ 71f, § 71g)</text>
<text x="14428.0" y="578.6" font-size="16" fill="#1e1e1e">Hybridheizung</text>
<text x="14428.0" y="598.6" font-size="16" fill="#1e1e1e">(WP-Hybrid/Solarthermie-Hybrid)</text>
<text x="14428.0" y="618.6" font-size="16" fill="#1e1e1e">(§ 71h)</text>
<text x="13788.0" y="448.6" font-size="16" fill="#1e1e1e">Erfüllung der 65%-Pflicht durch</text>
<text x="13788.0" y="468.6" font-size="16" fill="#1e1e1e">(Auswahl):</text>
<text x="14748.0" y="442.7" font-size="12" fill="#1e1e1e">Übergangsfristen (Bestandsgebäude):</text>
<text x="14748.0" y="457.7" font-size="12" fill="#1e1e1e">Fristen gekoppelt an kommunale</text>
<text x="14748.0" y="472.7" font-size="12" fill="#1e1e1e">Wärmeplanung (bis 2026/2028) (§ 71 Abs. 8)</text>
<text x="13788.0" y="308.6" font-size="16" fill="#1e1e1e">Anforderungen an</text>
<text x="13788.0" y="328.6" font-size="16" fill="#1e1e1e">Heizungsanlagen (§ 71)</text>
<text x="15068.0" y="448.6" font-size="16" fill="#1e1e1e">Kessel vor 1991 eingebaut:</text>
<text x="15068.0" y="468.6" font-size="16" fill="#1e1e1e">Verbot</text>
<text x="15388.0" y="448.6" font-size="16" fill="#1e1e1e">Kessel ab 1991 eingebaut:</text>
<text x="15388.0" y="468.6" font-size="16" fill="#1e1e1e">Verbot nach 30 Jahren</text>
<text x="15708.0" y="438.6" font-size="16" fill="#1e1e1e">Ausnahmen: Niedertemperatur- /</text>
<text x="15708.0" y="458.6" font-size="16" fill="#1e1e1e">Brennwertkessel, Nennleistung &lt;</text>
<text x="15708.0" y="478.6" font-size="16" fill="#1e1e1e">4 kW oder &gt; 400 kW</text>
<text x="16028.0" y="438.6" font-size="16" fill="#1e1e1e">Maximaler Betrieb mit fossilen</text>
<text x="16028.0" y="458.6" font-size="16" fill="#1e1e1e">Brennstoffen bis 31. Dezember</text>
<text x="16028.0" y="478.6" font-size="16" fill="#1e1e1e">2044 (§ 72 Abs. 4)</text>
<text x="15548.0" y="308.6" font-size="16" fill="#1e1e1e">Betriebsverbot für Heizkessel</text>
<text x="15548.0" y="328.6" font-size="16" fill="#1e1e1e">(§ 72)</text>
<text x="13054.0" y="178.6" font-size="16" fill="#1e1e1e">Anlagen (Teil 4)</text>
<text x="16348.0" y="308.6" font-size="16" fill="#1e1e1e">Grundsätze: Information und</text>
<text x="16348.0" y="328.6" font-size="16" fill="#1e1e1e">Vergleich (§ 79)</text>
<text x="16668.0" y="448.6" font-size="16" fill="#1e1e1e">Neubau: Energiebedarfsausweis</text>
<text x="16668.0" y="468.6" font-size="16" fill="#1e1e1e">(nach Fertigstellung)</text>
<text x="16988.0" y="448.6" font-size="16" fill="#1e1e1e">Verkauf/Vermietung: gültiger</text>
<text x="16988.0" y="468.6" font-size="16" fill="#1e1e1e">Energieausweis erforderlich</text>
<text x="17308.0" y="438.6" font-size="16" fill="#1e1e1e">Wohngebäude &lt; 5 WE (Bauantrag</text>
<text x="17308.0" y="458.6" font-size="16" fill="#1e1e1e">vor 1977):</text>
<text x="17308.0" y="478.6" font-size="16" fill="#1e1e1e">Energiebedarfsausweis Pflicht</text>
<text x="17628.0" y="438.6" font-size="16" fill="#1e1e1e">Öffentliche Aushangpflicht</text>
<text x="17628.0" y="458.6" font-size="16" fill="#1e1e1e">(Publikumsverkehr &gt; 250 m² bzw.</text>
<text x="17628.0" y="478.6" font-size="16" fill="#1e1e1e">&gt; 500 m²)</text>
<text x="17148.0" y="308.6" font-size="16" fill="#1e1e1e">Ausstellung und Verwendung (§</text>
<text x="17148.0" y="328.6" font-size="16" fill="#1e1e1e">80)</text>
<text x="17948.0" y="295.2" font-size="12" fill="#1e1e1e">Inhalte: Energiebedarf, Energieverbrauch,</text>
<text x="17948.0" y="310.2" font-size="12" fill="#1e1e1e">Treibhausgasemissionen (Anlage 9),</text>
<text x="17948.0" y="325.2" font-size="12" fill="#1e1e1e">Energieeffizienzklasse (Anlage 10) (§ 85,</text>
<text x="17948.0" y="340.2" font-size="12" fill="#1e1e1e">§ 86)</text>
<text x="18268.0" y="308.6" font-size="16" fill="#1e1e1e">Pflichtangaben in</text>
<text x="18268.0" y="328.6" font-size="16" fill="#1e1e1e">Immobilienanzeigen (§ 87)</text>
<text x="18588.0" y="298.6" font-size="16" fill="#1e1e1e">Ausstellungsberechtigung:</text>
<text x="18588.0" y="318.6" font-size="16" fill="#1e1e1e">Qualifizierte Fachpersonen (§</text>
<text x="18588.0" y="338.6" font-size="16" fill="#1e1e1e">88)</text>
<text x="17660.0" y="178.6" font-size="16" fill="#1e1e1e">Energieausweise (Teil 5)</text>
<text x="18908.0" y="308.6" font-size="16" fill="#1e1e1e">Erfüllungserklärung (durch</text>
<text x="18908.0" y="328.6" font-size="16" fill="#1e1e1e">Bauherr/Eigentümer) (§ 92)</text>
<text x="19228.0" y="308.6" font-size="16" fill="#1e1e1e">Private Nachweise</text>
<text x="19228.0" y="328.6" font-size="16" fill="#1e1e1e">(Unternehmererklärung) (§ 96)</text>
<text x="19548.0" y="298.6" font-size="16" fill="#1e1e1e">Aufgaben des bevollmächtigten</text>
<text x="19548.0" y="318.6" font-size="16" fill="#1e1e1e">Bezirksschornsteinfegers</text>
<text x="19548.0" y="338.6" font-size="16" fill="#1e1e1e">(Prüfung und Hinweise) (§ 97)</text>
<text x="19868.0" y="308.6" font-size="16" fill="#1e1e1e">Registriernummern für</text>
<text x="19868.0" y="328.6" font-size="16" fill="#1e1e1e">Ausweise/Berichte (§ 98)</text>
<text x="20188.0" y="318.6" font-size="16" fill="#1e1e1e">Stichprobenkontrollen (§ 99)</text>
<text x="20508.0" y="448.6" font-size="16" fill="#1e1e1e">Zielgleichwertigkeit durch</text>
<text x="20508.0" y="468.6" font-size="16" fill="#1e1e1e">andere Maßnahmen</text>
<text x="20828.0" y="448.6" font-size="16" fill="#1e1e1e">Unbillige Härte (unangemessener</text>
<text x="20828.0" y="468.6" font-size="16" fill="#1e1e1e">Aufwand, Unwirtschaftlichkeit)</text>
<text x="21148.0" y="448.6" font-size="16" fill="#1e1e1e">Spezielle Befreiung bei</text>
<text x="21148.0" y="468.6" font-size="16" fill="#1e1e1e">Sozialleistungsbezug</text>
<text x="20828.0" y="318.6" font-size="16" fill="#1e1e1e">Befreiungen (§ 102)</text>
<text x="19761.0" y="178.6" font-size="16" fill="#1e1e1e">Vollzug (Teil 7)</text>
<text x="21468.0" y="308.6" font-size="16" fill="#1e1e1e">Gebäudenetz (2 bis 16 Gebäude,</text>
<text x="21468.0" y="328.6" font-size="16" fill="#1e1e1e">bis 100 WE)</text>
<text x="21788.0" y="308.6" font-size="16" fill="#1e1e1e">Niedrigstenergiegebäude (sehr</text>
<text x="21788.0" y="328.6" font-size="16" fill="#1e1e1e">gute Gesamtenergieeffizienz)</text>
<text x="22108.0" y="298.6" font-size="16" fill="#1e1e1e">Grüner Wasserstoff (erfüllt</text>
<text x="22108.0" y="318.6" font-size="16" fill="#1e1e1e">EU-Nachhaltigkeitsanforderungen</text>
<text x="22108.0" y="338.6" font-size="16" fill="#1e1e1e">)</text>
<text x="22428.0" y="298.6" font-size="16" fill="#1e1e1e">Erneuerbare Energien</text>
<text x="22428.0" y="318.6" font-size="16" fill="#1e1e1e">(Geothermie, Umweltwärme,</text>
<text x="22428.0" y="338.6" font-size="16" fill="#1e1e1e">Solar, Biomasse, grüner H2)</text>
<text x="22748.0" y="298.6" font-size="16" fill="#1e1e1e">Stromdirektheizung (direkte</text>
<text x="22748.0" y="318.6" font-size="16" fill="#1e1e1e">Erzeugung von Raumwärme durch</text>
<text x="22748.0" y="338.6" font-size="16" fill="#1e1e1e">elektrischen Widerstand)</text>
<text x="22108.0" y="168.6" font-size="16" fill="#1e1e1e">Begriffsbestimmungen (Auszug §</text>
<text x="22108.0" y="188.6" font-size="16" fill="#1e1e1e">3)</text>
<text x="11252.0" y="28.6" font-size="16" fill="#1e1e1e">🧠 Gebäudeenergiegesetz (GEG) -</text>
<text x="11252.0" y="48.6" font-size="16" fill="#1e1e1e">Überblick</text>
</svg>