<svg xmlns="http://www.w3.org/2000/svg" viewBox="-4.0 -24.0 11208.0 678.0" font-family="Segoe UI, system-ui, sans-serif">
<path d="M 480.0 350.0 L 160.0 420.0" fill="none" stroke="#1e1e1e" stroke-width="1.4"/>
<polygon points="160.0,420.0 167.2,414.7 168.8,421.8" fill="#1e1e1e"/>
<path d="M 480.0 350.0 L 480.0 420.0" fill="none" stroke="#1e1e1e" stroke-width="1.4"/>
<polygon points="480.0,420.0 476.3,411.8 483.7,411.8" fill="#1e1e1e"/>
<path d="M 480.0 350.0 L 800.0 420.0" fill="none" stroke="#1e1e1e" stroke-width="1.4"/>
<polygon points="800.0,420.0 791.2,421.8 792.8,414.7" fill="#1e1e1e"/>
<path d="M 1440.0 350.0 L 1120.0 420.0" fill="none" stroke="#1e1e1e" stroke-width="1.4"/>
<polygon points="1120.0,420.0 1127.2,414.7 1128.8,421.8" fill="#1e1e1e"/>
<path d="M 1440.0 350.0 L 1440.0 420.0" fill="none" stroke="#1e1e1e" stroke-width="1.4"/>
<polygon points="1440.0,420.0 1436.3,411.8 1443.7,411.8" fill="#1e1e1e"/>
<path d="M 1440.0 350.0 L 1760.0 420.0" fill="none" stroke="#1e1e1e" stroke-width="1.4"/>
<polygon points="1760.0,420.0 1751.2,421.8 1752.8,414.7" fill="#1e1e1e"/>
<path d="M 2560.0 490.0 L 2080.0 560.0" fill="none" stroke="#1e1e1e" stroke-width="1.4"/>
<polygon points="2080.0,560.0 2087.6,555.2 2088.7,562.4" fill="#1e1e1e"/>
<path d="M 2560.0 490.0 L 2400.0 560.0" fill="none" stroke="#1e1e1e" stroke-width="1.4"/>
<polygon points="2400.0,560.0 2406.1,553.3 2409.0,560.1" fill="#1e1e1e"/>
<path d="M 2560.0 490.0 L 2720.0 560.0" fill="none" stroke="#1e1e1e" stroke-width="1.4"/>
<polygon points="2720.0,560.0 2711.0,560.1 2713.9,553.3" fill="#1e1e1e"/>
<path d="M 2560.0 490.0 L 3040.0 560.0" fill="none" stroke="#1e1e1e" stroke-width="1.4"/>
<polygon points="3040.0,560.0 3031.3,562.4 3032.4,555.2" fill="#1e1e1e"/>
<path d="M 3520.0 490.0 L 3360.0 560.0" fill="none" stroke="#1e1e1e" stroke-width="1.4"/>
<polygon points="3360.0,560.0 3366.1,553.3 3369.0,560.1" fill="#1e1e1e"/>
<path d="M 3520.0 490.0 L 3680.0 560.0" fill="none" stroke="#1e1e1e" stroke-width="1.4"/>
<polygon points="3680.0,560.0 3671.0,560.1 3673.9,553.3" fill="#1e1e1e"/>
<path d="M 4160.0 490.0 L 4000.0 560.0" fill="none" stroke="#1e1e1e" stroke-width="1.4"/>
<polygon points="4000.0,560.0 4006.1,553.3 4009.0,560.1" fill="#1e1e1e"/>
<path d="M 4160.0 490.0 L 4320.0 560.0" fill="none" stroke="#1e1e1e" stroke-width="1.4"/>
<polygon points="4320.0,560.0 4311.0,560.1 4313.9,553.3" fill="#1e1e1e"/>
<path d="M 3968.0 350.0 L 2560.0 420.0" fill="none" stroke="#1e1e1e" stroke-width="1.4"/>
<polygon points="2560.0,420.0 2568.0,415.9 2568.4,423.3" fill="#1e1e1e"/>
<path d="M 3968.0 350.0 L 3520.0 420.0" fill="none" stroke="#1e1e1e" stroke-width="1.4"/>
<polygon points="3520.0,420.0 3527.6,415.1 3528.7,422.4" fill="#1e1e1e"/>
<path d="M 3968.0 350.0 L 4160.0 420.0" fill="none" stroke="#1e1e1e" stroke-width="1.4"/>
<polygon points="4160.0,420.0 4151.0,420.6 4153.5,413.7" fill="#1e1e1e"/>
<path d="M 3968.0 350.0 L 4640.0 420.0" fill="none" stroke="#1e1e1e" stroke-width="1.4"/>
<polygon points="4640.0,420.0 4631.4,422.8 4632.2,415.5" fill="#1e1e1e"/>
<path d="M 3968.0 350.0 L 4960.0 420.0" fill="none" stroke="#1e1e1e" stroke-width="1.4"/>
<polygon points="4960.0,420.0 4951.5,423.1 4952.1,415.8" fill="#1e1e1e"/>
<path d="M 1962.0 210.0 L 480.0 280.0" fill="none" stroke="#1e1e1e" stroke-width="1.4"/>
<polygon points="480.0,280.0 488.0,275.9 488.4,283.3" fill="#1e1e1e"/>
<path d="M 1962.0 210.0 L 1440.0 280.0" fill="none" stroke="#1e1e1e" stroke-width="1.4"/>
<polygon points="1440.0,280.0 1447.7,275.3 1448.6,282.5" fill="#1e1e1e"/>
<path d="M 1962.0 210.0 L 3968.0 280.0" fill="none" stroke="#1e1e1e" stroke-width="1.4"/>
<polygon points="3968.0,280.0 3959.7,283.4 3959.9,276.0" fill="#1e1e1e"/>
<path d="M 5600.0 350.0 L 5280.0 420.0" fill="none" stroke="#1e1e1e" stroke-width="1.4"/>
<polygon points="5280.0,420.0 5287.2,414.7 5288.8,421.8" fill="#1e1e1e"/>
<path d="M 5600.0 350.0 L 5600.0 420.0" fill="none" stroke="#1e1e1e" stroke-width="1.4"/>
<polygon points="5600.0,420.0 5596.3,411.8 5603.7,411.8" fill="#1e1e1e"/>
<path d="M 5600.0 350.0 L 5920.0 420.0" fill="none" stroke="#1e1e1e" stroke-width="1.4"/>
<polygon points="5920.0,420.0 5911.2,421.8 5912.8,414.7" fill="#1e1e1e"/>
<path d="M 6560.0 350.0 L 6240.0 420.0" fill="none" stroke="#1e1e1e" stroke-width="1.4"/>
<polygon points="6240.0,420.0 6247.2,414.7 6248.8,421.8" fill="#1e1e1e"/>
<path d="M 6560.0 350.0 L 6560.0 420.0" fill="none" stroke="#1e1e1e" stroke-width="1.4"/>
<polygon points="6560.0,420.0 6556.3,411.8 6563.7,411.8" fill="#1e1e1e"/>
<path d="M 6560.0 350.0 L 6880.0 420.0" fill="none" stroke="#1e1e1e" stroke-width="1.4"/>
<polygon points="6880.0,420.0 6871.2,421.8 6872.8,414.7" fill="#1e1e1e"/>
<path d="M 7360.0 350.0 L 7200.0 420.0" fill="none" stroke="#1e1e1e" stroke-width="1.4"/>
<polygon points="7200.0,420.0 7206.1,413.3 7209.0,420.1" fill="#1e1e1e"/>
<path d="M 7360.0 350.0 L 7520.0 420.0" fill="none" stroke="#1e1e1e" stroke-width="1.4"/>
<polygon points="7520.0,420.0 7511.0,420.1 7513.9,413.3" fill="#1e1e1e"/>
<path d="M 8160.0 350.0 L 7840.0 420.0" fill="none" stroke="#1e1e1e" stroke-width="1.4"/>
<polygon points="7840.0,420.0 7847.2,414.7 7848.8,421.8" fill="#1e1e1e"/>
<path d="M 8160.0 350.0 L 8160.0 420.0" fill="none" stroke="#1e1e1e" stroke-width="1.4"/>
<polygon points="8160.0,420.0 8156.3,411.8 8163.7,411.8" fill="#1e1e1e"/>
<path d="M 8160.0 350.0 L 8480.0 420.0" fill="none" stroke="#1e1e1e" stroke-width="1.4"/>
<polygon points="8480.0,420.0 8471.2,421.8 8472.8,414.7" fill="#1e1e1e"/>
<path d="M 6920.0 210.0 L 5600.0 280.0" fill="none" stroke="#1e1e1e" stroke-width="1.4"/>
<polygon points="5600.0,280.0 5608.0,275.9 5608.4,283.2" fill="#1e1e1e"/>
<path d="M 6920.0 210.0 L 6560.0 280.0" fill="none" stroke="#1e1e1e" stroke-width="1.4"/>
<polygon points="6560.0,280.0 6567.4,274.8 6568.8,282.0" fill="#1e1e1e"/>
<path d="M 6920.0 210.0 L 7360.0 280.0" fill="none" stroke="#1e1e1e" stroke-width="1.4"/>
<polygon points="7360.0,280.0 7351.3,282.3 7352.5,275.1" fill="#1e1e1e"/>
<path d="M 6920.0 210.0 L 8160.0 280.0" fill="none" stroke="#1e1e1e" stroke-width="1.4"/>
<polygon points="8160.0,280.0 8151.6,283.2 8152.0,275.9" fill="#1e1e1e"/>
<path d="M 9120.0 350.0 L 8800.0 420.0" fill="none" stroke="#1e1e1e" stroke-width="1.4"/>
<polygon points="8800.0,420.0 8807.2,414.7 8808.8,421.8" fill="#1e1e1e"/>
<path d="M 9120.0 350.0 L 9120.0 420.0" fill="none" stroke="#1e1e1e" stroke-width="1.4"/>
<polygon points="9120.0,420.0 9116.3,411.8 9123.7,411.8" fill="#1e1e1e"/>
<path d="M 9120.0 350.0 L 9440.0 420.0" fill="none" stroke="#1e1e1e" stroke-width="1.4"/>
<polygon points="9440.0,420.0 9431.2,421.8 9432.8,414.7" fill="#1e1e1e"/>
<path d="M 9920.0 350.0 L 9760.0 420.0" fill="none" stroke="#1e1e1e" stroke-width="1.4"/>
<polygon points="9760.0,420.0 9766.1,413.3 9769.0,420.1" fill="#1e1e1e"/>
<path d="M 9920.0 350.0 L 10080.0 420.0" fill="none" stroke="#1e1e1e" stroke-width="1.4"/>
<polygon points="10080.0,420.0 10071.0,420.1 10073.9,413.3" fill="#1e1e1e"/>
<path d="M 10720.0 350.0 L 10400.0 420.0" fill="none" stroke="#1e1e1e" stroke-width="1.4"/>
<polygon points="10400.0,420.0 10407.2,414.7 10408.8,421.8" fill="#1e1e1e"/>
<path d="M 10720.0 350.0 L 10720.0 420.0" fill="none" stroke="#1e1e1e" stroke-width="1.4"/>
<polygon points="10720.0,420.0 10716.3,411.8 10723.7,411.8" fill="#1e1e1e"/>
<path d="M 10720.0 350.0 L 11040.0 420.0" fill="none" stroke="#1e1e1e" stroke-width="1.4"/>
<polygon points="11040.0,420.0 11031.2,421.8 11032.8,414.7" fill="#1e1e1e"/>
<path d="M 9920.0 210.0 L 9120.0 280.0" fill="none" stroke="#1e1e1e" stroke-width="1.4"/>
<polygon points="9120.0,280.0 9127.9,275.6 9128.5,282.9" fill="#1e1e1e"/>
<path d="M 9920.0 210.0 L 9920.0 280.0" fill="none" stroke="#1e1e1e" stroke-width="1.4"/>
<polygon points="9920.0,280.0 9916.3,271.8 9923.7,271.8" fill="#1e1e1e"/>
<path d="M 9920.0 210.0 L 10720.0 280.0" fill="none" stroke="#1e1e1e" stroke-width="1.4"/>
<polygon points="10720.0,280.0 10711.5,282.9 10712.1,275.6" fill="#1e1e1e"/>
<path d="M 6267.0 70.0 L 1962.0 140.0" fill="none" stroke="#1e1e1e" stroke-width="1.4"/>
<polygon points="1962.0,140.0 1970.2,136.2 1970.3,143.5" fill="#1e1e1e"/>
<path d="M 6267.0 70.0 L 6920.0 140.0" fill="none" stroke="#1e1e1e" stroke-width="1.4"/>
<polygon points="6920.0,140.0 6911.4,142.8 6912.2,135.5" fill="#1e1e1e"/>
<path d="M 6267.0 70.0 L 9920.0 140.0" fill="none" stroke="#1e1e1e" stroke-width="1.4"/>
<polygon points="9920.0,140.0 9911.7,143.5 9911.9,136.2" fill="#1e1e1e"/>
<rect x="20.0" y="420.0" width="280.0" height="70.0" rx="8" fill="#a5d8ff" stroke="#1e1e1e" stroke-width="1.2"/>
<rect x="340.0" y="420.0" width="280.0" height="70.0" rx="8" fill="#a5d8ff" stroke="#1e1e1e" stroke-width="1.2"/>
<rect x="660.0" y="420.0" width="280.0" height="70.0" rx="8" fill="#a5d8ff" stroke="#1e1e1e" stroke-width="1.2"/>
<rect x="340.0" y="280.0" width="280.0" height="70.0" rx="8" fill="#b2f2bb" stroke="#1e1e1e" stroke-width="1.2"/>
<rect x="980.0" y="420.0" width="280.0" height="70.0" rx="8" fill="#a5d8ff" stroke="#1e1e1e" stroke-width="1.2"/>
<rect x="1300.0" y="420.0" width="280.0" height="70.0" rx="8" fill="#a5d8ff" stroke="#1e1e1e" stroke-width="1.2"/>
<rect x="1620.0" y="420.0" width="280.0" height="70.0" rx="8" fill="#a5d8ff" stroke="#1e1e1e" stroke-width="1.2"/>
<rect x="1300.0" y="280.0" width="280.0" height="70.0" rx="8" fill="#b2f2bb" stroke="#1e1e1e" stroke-width="1.2"/>
<rect x="1940.0" y="560.0" width="280.0" height="70.0" rx="8" fill="#ffec99" stroke="#1e1e1e" stroke-width="1.2"/>
<rect x="2260.0" y="560.0" width="280.0" height="70.0" rx="8" fill="#ffec99" stroke="#1e1e1e" stroke-width="1.2"/>
<rect x="2580.0" y="560.0" width="280.0" height="70.0" rx="8" fill="#ffec99" stroke="#1e1e1e" stroke-width="1.2"/>
<rect x="2900.0" y="560.0" width="280.0" height="70.0" rx="8" fill="#ffec99" stroke="#1e1e1e" stroke-width="1.2"/>
<rect x="2420.0" y="420.0" width="280.0" height="70.0" rx="8" fill="#a5d8ff" stroke="#1e1e1e" stroke-width="1.2"/>
<rect x="3220.0" y="560.0" width="280.0" height="70.0" rx="8" fill="#ffec99" stroke="#1e1e1e" stroke-width="1.2"/>
<rect x="3540.0" y="560.0" width="280.0" height="70.0" rx="8" fill="#ffec99" stroke="#1e1e1e" stroke-width="1.2"/>
<rect x="3380.0" y="420.0" width="280.0" height="70.0" rx="8" fill="#a5d8ff" stroke="#1e1e1e" stroke-width="1.2"/>
<rect x="3860.0" y="560.0" width="280.0" height="70.0" rx="8" fill="#ffec99" stroke="#1e1e1e" stroke-width="1.2"/>
<rect x="4180.0" y="560.0" width="280.0" height="70.0" rx="8" fill="#ffec99" stroke="#1e1e1e" stroke-width="1.2"/>
<rect x="4020.0" y="420.0" width="280.0" height="70.0" rx="8" fill="#a5d8ff" stroke="#1e1e1e" stroke-width="1.2"/>
<rect x="4500.0" y="420.0" width="280.0" height="70.0" rx="8" fill="#a5d8ff" stroke="#1e1e1e" stroke-width="1.2"/>
<rect x="4820.0" y="420.0" width="280.0" height="70.0" rx="8" fill="#a5d8ff" stroke="#1e1e1e" stroke-width="1.2"/>
<rect x="3828.0" y="280.0" width="280.0" height="70.0" rx="8" fill="#b2f2bb" stroke="#1e1e1e" stroke-width="1.2"/>
<rect x="1822.0" y="140.0" width="280.0" height="70.0" rx="8" fill="#ffd8a8" stroke="#1e1e1e" stroke-width="1.2"/>
<rect x="5140.0" y="420.0" width="280.0" height="70.0" rx="8" fill="#a5d8ff" stroke="#1e1e1e" stroke-width="1.2"/>
<rect x="5460.0" y="420.0" width="280.0" height="70.0" rx="8" fill="#a5d8ff" stroke="#1e1e1e" stroke-width="1.2"/>
<rect x="5780.0" y="420.0" width="280.0" height="70.0" rx="8" fill="#a5d8ff" stroke="#1e1e1e" stroke-width="1.2"/>
<rect x="5460.0" y="280.0" width="280.0" height="70.0" rx="8" fill="#b2f2bb" stroke="#1e1e1e" stroke-width="1.2"/>
<rect x="6100.0" y="420.0" width="280.0" height="70.0" rx="8" fill="#a5d8ff" stroke="#1e1e1e" stroke-width="1.2"/>
<rect x="6420.0" y="420.0" width="280.0" height="70.0" rx="8" fill="#a5d8ff" stroke="#1e1e1e" stroke-width="1.2"/>
<rect x="6740.0" y="420.0" width="280.0" height="70.0" rx="8" fill="#a5d8ff" stroke="#1e1e1e" stroke-width="1.2"/>
<rect x="6420.0" y="280.0" width="280.0" height="70.0" rx="8" fill="#b2f2bb" stroke="#1e1e1e" stroke-width="1.2"/>
<rect x="7060.0" y="420.0" width="280.0" height="70.0" rx="8" fill="#a5d8ff" stroke="#1e1e1e" stroke-width="1.2"/>
<rect x="7380.0" y="420.0" width="280.0" height="70.0" rx="8" fill="#a5d8ff" stroke="#1e1e1e" stroke-width="1.2"/>
<rect x="7220.0" y="280.0" width="280.0" height="70.0" rx="8" fill="#b2f2bb" stroke="#1e1e1e" stroke-width="1.2"/>
<rect x="7700.0" y="420.0" width="280.0" height="70.0" rx="8" fill="#a5d8ff" stroke="#1e1e1e" stroke-width="1.2"/>
<rect x="8020.0" y="420.0" width="280.0" height="70.0" rx="8" fill="#a5d8ff" stroke="#1e1e1e" stroke-width="1.2"/>
<rect x="8340.0" y="420.0" width="280.0" height="70.0" rx="8" fill="#a5d8ff" stroke="#1e1e1e" stroke-width="1.2"/>
<rect x="8020.0" y="280.0" width="280.0" height="70.0" rx="8" fill="#b2f2bb" stroke="#1e1e1e" stroke-width="1.2"/>
<rect x="6780.0" y="140.0" width="280.0" height="70.0" rx="8" fill="#ffd8a8" stroke="#1e1e1e" stroke-width="1.2"/>
<rect x="8660.0" y="420.0" width="280.0" height="70.0" rx="8" fill="#a5d8ff" stroke="#1e1e1e" stroke-width="1.2"/>
<rect x="8980.0" y="420.0" width="280.0" height="70.0" rx="8" fill="#a5d8ff" stroke="#1e1e1e" stroke-width="1.2"/>
<rect x="9300.0" y="420.0" width="280.0" height="70.0" rx="8" fill="#a5d8ff" stroke="#1e1e1e" stroke-width="1.2"/>
<rect x="8980.0" y="280.0" width="280.0" height="70.0" rx="8" fill="#b2f2bb" stroke="#1e1e1e" stroke-width="1.2"/>
<rect x="9620.0" y="420.0" width="280.0" height="70.0" rx="8" fill="#a5d8ff" stroke="#1e1e1e" stroke-width="1.2"/>
<rect x="9940.0" y="420.0" width="280.0" height="70.0" rx="8" fill="#a5d8ff" stroke="#1e1e1e" stroke-width="1.2"/>
<rect x="9780.0" y="280.0" width="280.0" height="70.0" rx="8" fill="#b2f2bb" stroke="#1e1e1e" stroke-width="1.2"/>
<rect x="10260.0" y="420.0" width="280.0" height="70.0" rx="8" fill="#a5d8ff" stroke="#1e1e1e" stroke-width="1.2"/>
<rect x="10580.0" y="420.0" width="280.0" height="70.0" rx="8" fill="#a5d8ff" stroke="#1e1e1e" stroke-width="1.2"/>
<rect x="10900.0" y="420.0" width="280.0" height="70.0" rx="8" fill="#a5d8ff" stroke="#1e1e1e" stroke-width="1.2"/>
<rect x="10580.0" y="280.0" width="280.0" height="70.0" rx="8" fill="#b2f2bb" stroke="#1e1e1e" stroke-width="1.2"/>
<rect x="9780.0" y="140.0" width="280.0" height="70.0" rx="8" fill="#ffd8a8" stroke="#1e1e1e" stroke-width="1.2"/>
<rect x="6127.0" y="0.0" width="280.0" height="70.0" rx="8" fill="#d0bfff" stroke="#1e1e1e" stroke-width="1.2"/>
<text x="28.0" y="458.6" font-size="16" fill="#1e1e1e">Holzfeuchte &gt; 20%</text>
<text x="348.0" y="458.6" font-size="16" fill="#1e1e1e">Temperatur ca. 25°C</text>
<text x="668.0" y="458.6" font-size="16" fill="#1e1e1e">Kein Sonnenlicht nötig</text>
<text x="348.0" y="318.6" font-size="16" fill="#1e1e1e">Allgemeine Bedingungen</text>
<text x="988.0" y="458.6" font-size="16" fill="#1e1e1e">Baumkrebs (Pilzsporen)</text>
<text x="1308.0" y="458.6" font-size="16" fill="#1e1e1e">Rotfäule (Zersetzung Cellulose)</text>
<text x="1628.0" y="458.6" font-size="16" fill="#1e1e1e">Weißfäule (Zersetzung Lignin)</text>
<text x="1308.0" y="318.6" font-size="16" fill="#1e1e1e">An lebenden Bäumen</text>
<text x="1948.0" y="598.6" font-size="16" fill="#1e1e1e">Gefährlichster Schädling</text>
<text x="2268.0" y="598.6" font-size="16" fill="#1e1e1e">Braunfäule</text>
<text x="2588.0" y="598.6" font-size="16" fill="#1e1e1e">Durchdringt Mauerwerk</text>
<text x="2908.0" y="598.6" font-size="16" fill="#1e1e1e">Geruch nach verbranntem Horn</text>
<text x="2428.0" y="458.6" font-size="16" fill="#1e1e1e">Echter Hausschwamm</text>
<text x="3228.0" y="598.6" font-size="16" fill="#1e1e1e">Feuchte ab 50%</text>
<text x="3548.0" y="598.6" font-size="16" fill="#1e1e1e">Braun-schwarze dünne Stränge</text>
<text x="3388.0" y="458.6" font-size="16" fill="#1e1e1e">Kellerschwamm</text>
<text x="3868.0" y="598.6" font-size="16" fill="#1e1e1e">Hoher Feuchtigkeitsbedarf</text>
<text x="4188.0" y="588.6" font-size="16" fill="#1e1e1e">Revitalisierung nach</text>
<text x="4188.0" y="608.6" font-size="16" fill="#1e1e1e">Trockenheit</text>
<text x="4028.0" y="458.6" font-size="16" fill="#1e1e1e">Weißer Porenschwamm</text>
<text x="4508.0" y="458.6" font-size="16" fill="#1e1e1e">Verblauung (Kiefernholz/Splint)</text>
<text x="4828.0" y="458.6" font-size="16" fill="#1e1e1e">Rotstreifigkeit (Fichtenholz)</text>
<text x="3836.0" y="318.6" font-size="16" fill="#1e1e1e">An verbautem Holz</text>
<text x="1830.0" y="168.6" font-size="16" fill="#1e1e1e">Pflanzliche Holzschädlinge</text>
<text x="1830.0" y="188.6" font-size="16" fill="#1e1e1e">(Pilze)</text>
<text x="5148.0" y="458.6" font-size="16" fill="#1e1e1e">Nadelbaum-Splintholz</text>
<text x="5468.0" y="458.6" font-size="16" fill="#1e1e1e">Larve bis 30mm</text>
<text x="5788.0" y="458.6" font-size="16" fill="#1e1e1e">4x7mm ovale Fluglöcher</text>
<text x="5468.0" y="318.6" font-size="16" fill="#1e1e1e">Hausbock</text>
<text x="6108.0" y="458.6" font-size="16" fill="#1e1e1e">Laub- und Nadelholz</text>
<text x="6428.0" y="458.6" font-size="16" fill="#1e1e1e">Larve bis 6mm</text>
<text x="6748.0" y="458.6" font-size="16" fill="#1e1e1e">2mm runde Fluglöcher</text>
<text x="6428.0" y="318.6" font-size="16" fill="#1e1e1e">Nagekäfer</text>
<text x="7068.0" y="458.6" font-size="16" fill="#1e1e1e">Stärkereiches Laubholz</text>
<text x="7388.0" y="458.6" font-size="16" fill="#1e1e1e">1.5mm kleine Fluglöcher</text>
<text x="7228.0" y="318.6" font-size="16" fill="#1e1e1e">Splintholzkäfer</text>
<text x="7708.0" y="458.6" font-size="16" fill="#1e1e1e">Vorwiegend Laubholz</text>
<text x="8028.0" y="458.6" font-size="16" fill="#1e1e1e">Blauschwarze Wespe</text>
<text x="8348.0" y="458.6" font-size="16" fill="#1e1e1e">7mm runde Fluglöcher</text>
<text x="8028.0" y="318.6" font-size="16" fill="#1e1e1e">Holzwespe</text>
<text x="6788.0" y="178.6" font-size="16" fill="#1e1e1e">Tierische Holzschädlinge</text>
<text x="8668.0" y="458.6" font-size="16" fill="#1e1e1e">Bauliche Maßnahmen vorrangig</text>
<text x="8988.0" y="448.6" font-size="16" fill="#1e1e1e">Anwendungsverbot in</text>
<text x="8988.0" y="468.6" font-size="16" fill="#1e1e1e">Aufenthaltsräumen</text>
<text x="9308.0" y="458.6" font-size="16" fill="#1e1e1e">Gebrauchsklasse 0 (GK 0)</text>
<text x="8988.0" y="318.6" font-size="16" fill="#1e1e1e">DIN 68800</text>
<text x="9628.0" y="458.6" font-size="16" fill="#1e1e1e">Schutz gegen Insektenbefall</text>
<text x="9948.0" y="458.6" font-size="16" fill="#1e1e1e">Keine chemischen Mittel nötig</text>
<text x="9788.0" y="318.6" font-size="16" fill="#1e1e1e">Technisch getrocknetes Holz</text>
<text x="10268.0" y="448.6" font-size="16" fill="#1e1e1e">Haftungsrisiko bei</text>
<text x="10268.0" y="468.6" font-size="16" fill="#1e1e1e">Fehlanwendung</text>
<text x="10588.0" y="458.6" font-size="16" fill="#1e1e1e">Kreislaufwirtschaftsgesetz</text>
<text x="10908.0" y="458.6" font-size="16" fill="#1e1e1e">Vermeidung von Sondermüll</text>
<text x="10588.0" y="318.6" font-size="16" fill="#1e1e1e">Rechtliche Aspekte</text>
<text x="9788.0" y="178.6" font-size="16" fill="#1e1e1e">Vorbeugender Holzschutz</text>
<text x="6135.0" y="38.6" font-size="16" fill="#1e1e1e">🧠 Holzschädlinge</text>
</svg>